<?xml version="1.0" encoding="utf-8" standalone="no"?>
<!DOCTYPE svg PUBLIC "-//W3C//DTD SVG 1.1//EN"
  "http://www.w3.org/Graphics/SVG/1.1/DTD/svg11.dtd">
<!-- Created with matplotlib (https://matplotlib.org/) -->
<svg height="385.129687pt" version="1.1" viewBox="0 0 770.936937 385.129687" width="770.936937pt" xmlns="http://www.w3.org/2000/svg" xmlns:xlink="http://www.w3.org/1999/xlink">
 <defs>
  <style type="text/css">
*{stroke-linecap:butt;stroke-linejoin:round;}
  </style>
 </defs>
 <g id="figure_1">
  <g id="patch_1">
   <path d="M 0 385.129687 
L 770.936937 385.129687 
L 770.936937 0 
L 0 0 
z
" style="fill:#ffffff;"/>
  </g>
  <g id="axes_1">
   <g id="patch_2">
    <path d="M 53.53875 334.637812 
L 499.93875 334.637812 
L 499.93875 57.437813 
L 53.53875 57.437813 
z
" style="fill:#ffffff;"/>
   </g>
   <g id="matplotlib.axis_1">
    <g id="xtick_1">
     <g id="line2d_1">
      <path clip-path="url(#p41d5c0bb87)" d="M 53.53875 334.637812 
L 53.53875 57.437813 
" style="fill:none;stroke:#b0b0b0;stroke-linecap:square;stroke-width:0.8;"/>
     </g>
     <g id="line2d_2">
      <defs>
       <path d="M 0 0 
L 0 3.5 
" id="ma0aed31e2b" style="stroke:#000000;stroke-width:0.8;"/>
      </defs>
      <g>
       <use style="stroke:#000000;stroke-width:0.8;" x="53.53875" xlink:href="#ma0aed31e2b" y="334.637812"/>
      </g>
     </g>
     <g id="text_1">
      <!-- 0 -->
      <defs>
       <path d="M 31.78125 66.40625 
Q 24.171875 66.40625 20.328125 58.90625 
Q 16.5 51.421875 16.5 36.375 
Q 16.5 21.390625 20.328125 13.890625 
Q 24.171875 6.390625 31.78125 6.390625 
Q 39.453125 6.390625 43.28125 13.890625 
Q 47.125 21.390625 47.125 36.375 
Q 47.125 51.421875 43.28125 58.90625 
Q 39.453125 66.40625 31.78125 66.40625 
z
M 31.78125 74.21875 
Q 44.046875 74.21875 50.515625 64.515625 
Q 56.984375 54.828125 56.984375 36.375 
Q 56.984375 17.96875 50.515625 8.265625 
Q 44.046875 -1.421875 31.78125 -1.421875 
Q 19.53125 -1.421875 13.0625 8.265625 
Q 6.59375 17.96875 6.59375 36.375 
Q 6.59375 54.828125 13.0625 64.515625 
Q 19.53125 74.21875 31.78125 74.21875 
z
" id="DejaVuSans-48"/>
      </defs>
      <g transform="translate(50.3575 349.23625)scale(0.1 -0.1)">
       <use xlink:href="#DejaVuSans-48"/>
      </g>
     </g>
    </g>
    <g id="xtick_2">
     <g id="line2d_3">
      <path clip-path="url(#p41d5c0bb87)" d="M 116.411989 334.637812 
L 116.411989 57.437813 
" style="fill:none;stroke:#b0b0b0;stroke-linecap:square;stroke-width:0.8;"/>
     </g>
     <g id="line2d_4">
      <g>
       <use style="stroke:#000000;stroke-width:0.8;" x="116.411989" xlink:href="#ma0aed31e2b" y="334.637812"/>
      </g>
     </g>
     <g id="text_2">
      <!-- 50 -->
      <defs>
       <path d="M 10.796875 72.90625 
L 49.515625 72.90625 
L 49.515625 64.59375 
L 19.828125 64.59375 
L 19.828125 46.734375 
Q 21.96875 47.46875 24.109375 47.828125 
Q 26.265625 48.1875 28.421875 48.1875 
Q 40.625 48.1875 47.75 41.5 
Q 54.890625 34.8125 54.890625 23.390625 
Q 54.890625 11.625 47.5625 5.09375 
Q 40.234375 -1.421875 26.90625 -1.421875 
Q 22.3125 -1.421875 17.546875 -0.640625 
Q 12.796875 0.140625 7.71875 1.703125 
L 7.71875 11.625 
Q 12.109375 9.234375 16.796875 8.0625 
Q 21.484375 6.890625 26.703125 6.890625 
Q 35.15625 6.890625 40.078125 11.328125 
Q 45.015625 15.765625 45.015625 23.390625 
Q 45.015625 31 40.078125 35.4375 
Q 35.15625 39.890625 26.703125 39.890625 
Q 22.75 39.890625 18.8125 39.015625 
Q 14.890625 38.140625 10.796875 36.28125 
z
" id="DejaVuSans-53"/>
      </defs>
      <g transform="translate(110.049489 349.23625)scale(0.1 -0.1)">
       <use xlink:href="#DejaVuSans-53"/>
       <use x="63.623047" xlink:href="#DejaVuSans-48"/>
      </g>
     </g>
    </g>
    <g id="xtick_3">
     <g id="line2d_5">
      <path clip-path="url(#p41d5c0bb87)" d="M 179.285229 334.637812 
L 179.285229 57.437813 
" style="fill:none;stroke:#b0b0b0;stroke-linecap:square;stroke-width:0.8;"/>
     </g>
     <g id="line2d_6">
      <g>
       <use style="stroke:#000000;stroke-width:0.8;" x="179.285229" xlink:href="#ma0aed31e2b" y="334.637812"/>
      </g>
     </g>
     <g id="text_3">
      <!-- 100 -->
      <defs>
       <path d="M 12.40625 8.296875 
L 28.515625 8.296875 
L 28.515625 63.921875 
L 10.984375 60.40625 
L 10.984375 69.390625 
L 28.421875 72.90625 
L 38.28125 72.90625 
L 38.28125 8.296875 
L 54.390625 8.296875 
L 54.390625 0 
L 12.40625 0 
z
" id="DejaVuSans-49"/>
      </defs>
      <g transform="translate(169.741479 349.23625)scale(0.1 -0.1)">
       <use xlink:href="#DejaVuSans-49"/>
       <use x="63.623047" xlink:href="#DejaVuSans-48"/>
       <use x="127.246094" xlink:href="#DejaVuSans-48"/>
      </g>
     </g>
    </g>
    <g id="xtick_4">
     <g id="line2d_7">
      <path clip-path="url(#p41d5c0bb87)" d="M 242.158468 334.637812 
L 242.158468 57.437813 
" style="fill:none;stroke:#b0b0b0;stroke-linecap:square;stroke-width:0.8;"/>
     </g>
     <g id="line2d_8">
      <g>
       <use style="stroke:#000000;stroke-width:0.8;" x="242.158468" xlink:href="#ma0aed31e2b" y="334.637812"/>
      </g>
     </g>
     <g id="text_4">
      <!-- 150 -->
      <g transform="translate(232.614718 349.23625)scale(0.1 -0.1)">
       <use xlink:href="#DejaVuSans-49"/>
       <use x="63.623047" xlink:href="#DejaVuSans-53"/>
       <use x="127.246094" xlink:href="#DejaVuSans-48"/>
      </g>
     </g>
    </g>
    <g id="xtick_5">
     <g id="line2d_9">
      <path clip-path="url(#p41d5c0bb87)" d="M 305.031708 334.637812 
L 305.031708 57.437813 
" style="fill:none;stroke:#b0b0b0;stroke-linecap:square;stroke-width:0.8;"/>
     </g>
     <g id="line2d_10">
      <g>
       <use style="stroke:#000000;stroke-width:0.8;" x="305.031708" xlink:href="#ma0aed31e2b" y="334.637812"/>
      </g>
     </g>
     <g id="text_5">
      <!-- 200 -->
      <defs>
       <path d="M 19.1875 8.296875 
L 53.609375 8.296875 
L 53.609375 0 
L 7.328125 0 
L 7.328125 8.296875 
Q 12.9375 14.109375 22.625 23.890625 
Q 32.328125 33.6875 34.8125 36.53125 
Q 39.546875 41.84375 41.421875 45.53125 
Q 43.3125 49.21875 43.3125 52.78125 
Q 43.3125 58.59375 39.234375 62.25 
Q 35.15625 65.921875 28.609375 65.921875 
Q 23.96875 65.921875 18.8125 64.3125 
Q 13.671875 62.703125 7.8125 59.421875 
L 7.8125 69.390625 
Q 13.765625 71.78125 18.9375 73 
Q 24.125 74.21875 28.421875 74.21875 
Q 39.75 74.21875 46.484375 68.546875 
Q 53.21875 62.890625 53.21875 53.421875 
Q 53.21875 48.921875 51.53125 44.890625 
Q 49.859375 40.875 45.40625 35.40625 
Q 44.1875 33.984375 37.640625 27.21875 
Q 31.109375 20.453125 19.1875 8.296875 
z
" id="DejaVuSans-50"/>
      </defs>
      <g transform="translate(295.487958 349.23625)scale(0.1 -0.1)">
       <use xlink:href="#DejaVuSans-50"/>
       <use x="63.623047" xlink:href="#DejaVuSans-48"/>
       <use x="127.246094" xlink:href="#DejaVuSans-48"/>
      </g>
     </g>
    </g>
    <g id="xtick_6">
     <g id="line2d_11">
      <path clip-path="url(#p41d5c0bb87)" d="M 367.904947 334.637812 
L 367.904947 57.437813 
" style="fill:none;stroke:#b0b0b0;stroke-linecap:square;stroke-width:0.8;"/>
     </g>
     <g id="line2d_12">
      <g>
       <use style="stroke:#000000;stroke-width:0.8;" x="367.904947" xlink:href="#ma0aed31e2b" y="334.637812"/>
      </g>
     </g>
     <g id="text_6">
      <!-- 250 -->
      <g transform="translate(358.361197 349.23625)scale(0.1 -0.1)">
       <use xlink:href="#DejaVuSans-50"/>
       <use x="63.623047" xlink:href="#DejaVuSans-53"/>
       <use x="127.246094" xlink:href="#DejaVuSans-48"/>
      </g>
     </g>
    </g>
    <g id="xtick_7">
     <g id="line2d_13">
      <path clip-path="url(#p41d5c0bb87)" d="M 430.778187 334.637812 
L 430.778187 57.437813 
" style="fill:none;stroke:#b0b0b0;stroke-linecap:square;stroke-width:0.8;"/>
     </g>
     <g id="line2d_14">
      <g>
       <use style="stroke:#000000;stroke-width:0.8;" x="430.778187" xlink:href="#ma0aed31e2b" y="334.637812"/>
      </g>
     </g>
     <g id="text_7">
      <!-- 300 -->
      <defs>
       <path d="M 40.578125 39.3125 
Q 47.65625 37.796875 51.625 33 
Q 55.609375 28.21875 55.609375 21.1875 
Q 55.609375 10.40625 48.1875 4.484375 
Q 40.765625 -1.421875 27.09375 -1.421875 
Q 22.515625 -1.421875 17.65625 -0.515625 
Q 12.796875 0.390625 7.625 2.203125 
L 7.625 11.71875 
Q 11.71875 9.328125 16.59375 8.109375 
Q 21.484375 6.890625 26.8125 6.890625 
Q 36.078125 6.890625 40.9375 10.546875 
Q 45.796875 14.203125 45.796875 21.1875 
Q 45.796875 27.640625 41.28125 31.265625 
Q 36.765625 34.90625 28.71875 34.90625 
L 20.21875 34.90625 
L 20.21875 43.015625 
L 29.109375 43.015625 
Q 36.375 43.015625 40.234375 45.921875 
Q 44.09375 48.828125 44.09375 54.296875 
Q 44.09375 59.90625 40.109375 62.90625 
Q 36.140625 65.921875 28.71875 65.921875 
Q 24.65625 65.921875 20.015625 65.03125 
Q 15.375 64.15625 9.8125 62.3125 
L 9.8125 71.09375 
Q 15.4375 72.65625 20.34375 73.4375 
Q 25.25 74.21875 29.59375 74.21875 
Q 40.828125 74.21875 47.359375 69.109375 
Q 53.90625 64.015625 53.90625 55.328125 
Q 53.90625 49.265625 50.4375 45.09375 
Q 46.96875 40.921875 40.578125 39.3125 
z
" id="DejaVuSans-51"/>
      </defs>
      <g transform="translate(421.234437 349.23625)scale(0.1 -0.1)">
       <use xlink:href="#DejaVuSans-51"/>
       <use x="63.623047" xlink:href="#DejaVuSans-48"/>
       <use x="127.246094" xlink:href="#DejaVuSans-48"/>
      </g>
     </g>
    </g>
    <g id="xtick_8">
     <g id="line2d_15">
      <path clip-path="url(#p41d5c0bb87)" d="M 493.651426 334.637812 
L 493.651426 57.437813 
" style="fill:none;stroke:#b0b0b0;stroke-linecap:square;stroke-width:0.8;"/>
     </g>
     <g id="line2d_16">
      <g>
       <use style="stroke:#000000;stroke-width:0.8;" x="493.651426" xlink:href="#ma0aed31e2b" y="334.637812"/>
      </g>
     </g>
     <g id="text_8">
      <!-- 350 -->
      <g transform="translate(484.107676 349.23625)scale(0.1 -0.1)">
       <use xlink:href="#DejaVuSans-51"/>
       <use x="63.623047" xlink:href="#DejaVuSans-53"/>
       <use x="127.246094" xlink:href="#DejaVuSans-48"/>
      </g>
     </g>
    </g>
    <g id="text_9">
     <!-- Number of objects reported -->
     <defs>
      <path d="M 9.8125 72.90625 
L 23.09375 72.90625 
L 55.421875 11.921875 
L 55.421875 72.90625 
L 64.984375 72.90625 
L 64.984375 0 
L 51.703125 0 
L 19.390625 60.984375 
L 19.390625 0 
L 9.8125 0 
z
" id="DejaVuSans-78"/>
      <path d="M 8.5 21.578125 
L 8.5 54.6875 
L 17.484375 54.6875 
L 17.484375 21.921875 
Q 17.484375 14.15625 20.5 10.265625 
Q 23.53125 6.390625 29.59375 6.390625 
Q 36.859375 6.390625 41.078125 11.03125 
Q 45.3125 15.671875 45.3125 23.6875 
L 45.3125 54.6875 
L 54.296875 54.6875 
L 54.296875 0 
L 45.3125 0 
L 45.3125 8.40625 
Q 42.046875 3.421875 37.71875 1 
Q 33.40625 -1.421875 27.6875 -1.421875 
Q 18.265625 -1.421875 13.375 4.4375 
Q 8.5 10.296875 8.5 21.578125 
z
M 31.109375 56 
z
" id="DejaVuSans-117"/>
      <path d="M 52 44.1875 
Q 55.375 50.25 60.0625 53.125 
Q 64.75 56 71.09375 56 
Q 79.640625 56 84.28125 50.015625 
Q 88.921875 44.046875 88.921875 33.015625 
L 88.921875 0 
L 79.890625 0 
L 79.890625 32.71875 
Q 79.890625 40.578125 77.09375 44.375 
Q 74.3125 48.1875 68.609375 48.1875 
Q 61.625 48.1875 57.5625 43.546875 
Q 53.515625 38.921875 53.515625 30.90625 
L 53.515625 0 
L 44.484375 0 
L 44.484375 32.71875 
Q 44.484375 40.625 41.703125 44.40625 
Q 38.921875 48.1875 33.109375 48.1875 
Q 26.21875 48.1875 22.15625 43.53125 
Q 18.109375 38.875 18.109375 30.90625 
L 18.109375 0 
L 9.078125 0 
L 9.078125 54.6875 
L 18.109375 54.6875 
L 18.109375 46.1875 
Q 21.1875 51.21875 25.484375 53.609375 
Q 29.78125 56 35.6875 56 
Q 41.65625 56 45.828125 52.96875 
Q 50 49.953125 52 44.1875 
z
" id="DejaVuSans-109"/>
      <path d="M 48.6875 27.296875 
Q 48.6875 37.203125 44.609375 42.84375 
Q 40.53125 48.484375 33.40625 48.484375 
Q 26.265625 48.484375 22.1875 42.84375 
Q 18.109375 37.203125 18.109375 27.296875 
Q 18.109375 17.390625 22.1875 11.75 
Q 26.265625 6.109375 33.40625 6.109375 
Q 40.53125 6.109375 44.609375 11.75 
Q 48.6875 17.390625 48.6875 27.296875 
z
M 18.109375 46.390625 
Q 20.953125 51.265625 25.265625 53.625 
Q 29.59375 56 35.59375 56 
Q 45.5625 56 51.78125 48.09375 
Q 58.015625 40.1875 58.015625 27.296875 
Q 58.015625 14.40625 51.78125 6.484375 
Q 45.5625 -1.421875 35.59375 -1.421875 
Q 29.59375 -1.421875 25.265625 0.953125 
Q 20.953125 3.328125 18.109375 8.203125 
L 18.109375 0 
L 9.078125 0 
L 9.078125 75.984375 
L 18.109375 75.984375 
z
" id="DejaVuSans-98"/>
      <path d="M 56.203125 29.59375 
L 56.203125 25.203125 
L 14.890625 25.203125 
Q 15.484375 15.921875 20.484375 11.0625 
Q 25.484375 6.203125 34.421875 6.203125 
Q 39.59375 6.203125 44.453125 7.46875 
Q 49.3125 8.734375 54.109375 11.28125 
L 54.109375 2.78125 
Q 49.265625 0.734375 44.1875 -0.34375 
Q 39.109375 -1.421875 33.890625 -1.421875 
Q 20.796875 -1.421875 13.15625 6.1875 
Q 5.515625 13.8125 5.515625 26.8125 
Q 5.515625 40.234375 12.765625 48.109375 
Q 20.015625 56 32.328125 56 
Q 43.359375 56 49.78125 48.890625 
Q 56.203125 41.796875 56.203125 29.59375 
z
M 47.21875 32.234375 
Q 47.125 39.59375 43.09375 43.984375 
Q 39.0625 48.390625 32.421875 48.390625 
Q 24.90625 48.390625 20.390625 44.140625 
Q 15.875 39.890625 15.1875 32.171875 
z
" id="DejaVuSans-101"/>
      <path d="M 41.109375 46.296875 
Q 39.59375 47.171875 37.8125 47.578125 
Q 36.03125 48 33.890625 48 
Q 26.265625 48 22.1875 43.046875 
Q 18.109375 38.09375 18.109375 28.8125 
L 18.109375 0 
L 9.078125 0 
L 9.078125 54.6875 
L 18.109375 54.6875 
L 18.109375 46.1875 
Q 20.953125 51.171875 25.484375 53.578125 
Q 30.03125 56 36.53125 56 
Q 37.453125 56 38.578125 55.875 
Q 39.703125 55.765625 41.0625 55.515625 
z
" id="DejaVuSans-114"/>
      <path id="DejaVuSans-32"/>
      <path d="M 30.609375 48.390625 
Q 23.390625 48.390625 19.1875 42.75 
Q 14.984375 37.109375 14.984375 27.296875 
Q 14.984375 17.484375 19.15625 11.84375 
Q 23.34375 6.203125 30.609375 6.203125 
Q 37.796875 6.203125 41.984375 11.859375 
Q 46.1875 17.53125 46.1875 27.296875 
Q 46.1875 37.015625 41.984375 42.703125 
Q 37.796875 48.390625 30.609375 48.390625 
z
M 30.609375 56 
Q 42.328125 56 49.015625 48.375 
Q 55.71875 40.765625 55.71875 27.296875 
Q 55.71875 13.875 49.015625 6.21875 
Q 42.328125 -1.421875 30.609375 -1.421875 
Q 18.84375 -1.421875 12.171875 6.21875 
Q 5.515625 13.875 5.515625 27.296875 
Q 5.515625 40.765625 12.171875 48.375 
Q 18.84375 56 30.609375 56 
z
" id="DejaVuSans-111"/>
      <path d="M 37.109375 75.984375 
L 37.109375 68.5 
L 28.515625 68.5 
Q 23.6875 68.5 21.796875 66.546875 
Q 19.921875 64.59375 19.921875 59.515625 
L 19.921875 54.6875 
L 34.71875 54.6875 
L 34.71875 47.703125 
L 19.921875 47.703125 
L 19.921875 0 
L 10.890625 0 
L 10.890625 47.703125 
L 2.296875 47.703125 
L 2.296875 54.6875 
L 10.890625 54.6875 
L 10.890625 58.5 
Q 10.890625 67.625 15.140625 71.796875 
Q 19.390625 75.984375 28.609375 75.984375 
z
" id="DejaVuSans-102"/>
      <path d="M 9.421875 54.6875 
L 18.40625 54.6875 
L 18.40625 -0.984375 
Q 18.40625 -11.421875 14.421875 -16.109375 
Q 10.453125 -20.796875 1.609375 -20.796875 
L -1.8125 -20.796875 
L -1.8125 -13.1875 
L 0.59375 -13.1875 
Q 5.71875 -13.1875 7.5625 -10.8125 
Q 9.421875 -8.453125 9.421875 -0.984375 
z
M 9.421875 75.984375 
L 18.40625 75.984375 
L 18.40625 64.59375 
L 9.421875 64.59375 
z
" id="DejaVuSans-106"/>
      <path d="M 48.78125 52.59375 
L 48.78125 44.1875 
Q 44.96875 46.296875 41.140625 47.34375 
Q 37.3125 48.390625 33.40625 48.390625 
Q 24.65625 48.390625 19.8125 42.84375 
Q 14.984375 37.3125 14.984375 27.296875 
Q 14.984375 17.28125 19.8125 11.734375 
Q 24.65625 6.203125 33.40625 6.203125 
Q 37.3125 6.203125 41.140625 7.25 
Q 44.96875 8.296875 48.78125 10.40625 
L 48.78125 2.09375 
Q 45.015625 0.34375 40.984375 -0.53125 
Q 36.96875 -1.421875 32.421875 -1.421875 
Q 20.0625 -1.421875 12.78125 6.34375 
Q 5.515625 14.109375 5.515625 27.296875 
Q 5.515625 40.671875 12.859375 48.328125 
Q 20.21875 56 33.015625 56 
Q 37.15625 56 41.109375 55.140625 
Q 45.0625 54.296875 48.78125 52.59375 
z
" id="DejaVuSans-99"/>
      <path d="M 18.3125 70.21875 
L 18.3125 54.6875 
L 36.8125 54.6875 
L 36.8125 47.703125 
L 18.3125 47.703125 
L 18.3125 18.015625 
Q 18.3125 11.328125 20.140625 9.421875 
Q 21.96875 7.515625 27.59375 7.515625 
L 36.8125 7.515625 
L 36.8125 0 
L 27.59375 0 
Q 17.1875 0 13.234375 3.875 
Q 9.28125 7.765625 9.28125 18.015625 
L 9.28125 47.703125 
L 2.6875 47.703125 
L 2.6875 54.6875 
L 9.28125 54.6875 
L 9.28125 70.21875 
z
" id="DejaVuSans-116"/>
      <path d="M 44.28125 53.078125 
L 44.28125 44.578125 
Q 40.484375 46.53125 36.375 47.5 
Q 32.28125 48.484375 27.875 48.484375 
Q 21.1875 48.484375 17.84375 46.4375 
Q 14.5 44.390625 14.5 40.28125 
Q 14.5 37.15625 16.890625 35.375 
Q 19.28125 33.59375 26.515625 31.984375 
L 29.59375 31.296875 
Q 39.15625 29.25 43.1875 25.515625 
Q 47.21875 21.78125 47.21875 15.09375 
Q 47.21875 7.46875 41.1875 3.015625 
Q 35.15625 -1.421875 24.609375 -1.421875 
Q 20.21875 -1.421875 15.453125 -0.5625 
Q 10.6875 0.296875 5.421875 2 
L 5.421875 11.28125 
Q 10.40625 8.6875 15.234375 7.390625 
Q 20.0625 6.109375 24.8125 6.109375 
Q 31.15625 6.109375 34.5625 8.28125 
Q 37.984375 10.453125 37.984375 14.40625 
Q 37.984375 18.0625 35.515625 20.015625 
Q 33.0625 21.96875 24.703125 23.78125 
L 21.578125 24.515625 
Q 13.234375 26.265625 9.515625 29.90625 
Q 5.8125 33.546875 5.8125 39.890625 
Q 5.8125 47.609375 11.28125 51.796875 
Q 16.75 56 26.8125 56 
Q 31.78125 56 36.171875 55.265625 
Q 40.578125 54.546875 44.28125 53.078125 
z
" id="DejaVuSans-115"/>
      <path d="M 18.109375 8.203125 
L 18.109375 -20.796875 
L 9.078125 -20.796875 
L 9.078125 54.6875 
L 18.109375 54.6875 
L 18.109375 46.390625 
Q 20.953125 51.265625 25.265625 53.625 
Q 29.59375 56 35.59375 56 
Q 45.5625 56 51.78125 48.09375 
Q 58.015625 40.1875 58.015625 27.296875 
Q 58.015625 14.40625 51.78125 6.484375 
Q 45.5625 -1.421875 35.59375 -1.421875 
Q 29.59375 -1.421875 25.265625 0.953125 
Q 20.953125 3.328125 18.109375 8.203125 
z
M 48.6875 27.296875 
Q 48.6875 37.203125 44.609375 42.84375 
Q 40.53125 48.484375 33.40625 48.484375 
Q 26.265625 48.484375 22.1875 42.84375 
Q 18.109375 37.203125 18.109375 27.296875 
Q 18.109375 17.390625 22.1875 11.75 
Q 26.265625 6.109375 33.40625 6.109375 
Q 40.53125 6.109375 44.609375 11.75 
Q 48.6875 17.390625 48.6875 27.296875 
z
" id="DejaVuSans-112"/>
      <path d="M 45.40625 46.390625 
L 45.40625 75.984375 
L 54.390625 75.984375 
L 54.390625 0 
L 45.40625 0 
L 45.40625 8.203125 
Q 42.578125 3.328125 38.25 0.953125 
Q 33.9375 -1.421875 27.875 -1.421875 
Q 17.96875 -1.421875 11.734375 6.484375 
Q 5.515625 14.40625 5.515625 27.296875 
Q 5.515625 40.1875 11.734375 48.09375 
Q 17.96875 56 27.875 56 
Q 33.9375 56 38.25 53.625 
Q 42.578125 51.265625 45.40625 46.390625 
z
M 14.796875 27.296875 
Q 14.796875 17.390625 18.875 11.75 
Q 22.953125 6.109375 30.078125 6.109375 
Q 37.203125 6.109375 41.296875 11.75 
Q 45.40625 17.390625 45.40625 27.296875 
Q 45.40625 37.203125 41.296875 42.84375 
Q 37.203125 48.484375 30.078125 48.484375 
Q 22.953125 48.484375 18.875 42.84375 
Q 14.796875 37.203125 14.796875 27.296875 
z
" id="DejaVuSans-100"/>
     </defs>
     <g transform="translate(53.53875 375.434062)scale(0.12 -0.12)">
      <use xlink:href="#DejaVuSans-78"/>
      <use x="74.804688" xlink:href="#DejaVuSans-117"/>
      <use x="138.183594" xlink:href="#DejaVuSans-109"/>
      <use x="235.595703" xlink:href="#DejaVuSans-98"/>
      <use x="299.072266" xlink:href="#DejaVuSans-101"/>
      <use x="360.595703" xlink:href="#DejaVuSans-114"/>
      <use x="401.708984" xlink:href="#DejaVuSans-32"/>
      <use x="433.496094" xlink:href="#DejaVuSans-111"/>
      <use x="494.677734" xlink:href="#DejaVuSans-102"/>
      <use x="529.882812" xlink:href="#DejaVuSans-32"/>
      <use x="561.669922" xlink:href="#DejaVuSans-111"/>
      <use x="622.851562" xlink:href="#DejaVuSans-98"/>
      <use x="686.328125" xlink:href="#DejaVuSans-106"/>
      <use x="714.111328" xlink:href="#DejaVuSans-101"/>
      <use x="775.634766" xlink:href="#DejaVuSans-99"/>
      <use x="830.615234" xlink:href="#DejaVuSans-116"/>
      <use x="869.824219" xlink:href="#DejaVuSans-115"/>
      <use x="921.923828" xlink:href="#DejaVuSans-32"/>
      <use x="953.710938" xlink:href="#DejaVuSans-114"/>
      <use x="994.792969" xlink:href="#DejaVuSans-101"/>
      <use x="1056.316406" xlink:href="#DejaVuSans-112"/>
      <use x="1119.792969" xlink:href="#DejaVuSans-111"/>
      <use x="1180.974609" xlink:href="#DejaVuSans-114"/>
      <use x="1222.087891" xlink:href="#DejaVuSans-116"/>
      <use x="1261.296875" xlink:href="#DejaVuSans-101"/>
      <use x="1322.820312" xlink:href="#DejaVuSans-100"/>
     </g>
    </g>
   </g>
   <g id="matplotlib.axis_2">
    <g id="ytick_1">
     <g id="line2d_17">
      <path clip-path="url(#p41d5c0bb87)" d="M 53.53875 302.010962 
L 499.93875 302.010962 
" style="fill:none;stroke:#b0b0b0;stroke-linecap:square;stroke-width:0.8;"/>
     </g>
     <g id="line2d_18">
      <defs>
       <path d="M 0 0 
L -3.5 0 
" id="m8977ea1f62" style="stroke:#000000;stroke-width:0.8;"/>
      </defs>
      <g>
       <use style="stroke:#000000;stroke-width:0.8;" x="53.53875" xlink:href="#m8977ea1f62" y="302.010962"/>
      </g>
     </g>
     <g id="text_10">
      <!-- 10 -->
      <g transform="translate(33.81375 305.81018)scale(0.1 -0.1)">
       <use xlink:href="#DejaVuSans-49"/>
       <use x="63.623047" xlink:href="#DejaVuSans-48"/>
      </g>
     </g>
    </g>
    <g id="ytick_2">
     <g id="line2d_19">
      <path clip-path="url(#p41d5c0bb87)" d="M 53.53875 264.223376 
L 499.93875 264.223376 
" style="fill:none;stroke:#b0b0b0;stroke-linecap:square;stroke-width:0.8;"/>
     </g>
     <g id="line2d_20">
      <g>
       <use style="stroke:#000000;stroke-width:0.8;" x="53.53875" xlink:href="#m8977ea1f62" y="264.223376"/>
      </g>
     </g>
     <g id="text_11">
      <!-- 15 -->
      <g transform="translate(33.81375 268.022595)scale(0.1 -0.1)">
       <use xlink:href="#DejaVuSans-49"/>
       <use x="63.623047" xlink:href="#DejaVuSans-53"/>
      </g>
     </g>
    </g>
    <g id="ytick_3">
     <g id="line2d_21">
      <path clip-path="url(#p41d5c0bb87)" d="M 53.53875 226.43579 
L 499.93875 226.43579 
" style="fill:none;stroke:#b0b0b0;stroke-linecap:square;stroke-width:0.8;"/>
     </g>
     <g id="line2d_22">
      <g>
       <use style="stroke:#000000;stroke-width:0.8;" x="53.53875" xlink:href="#m8977ea1f62" y="226.43579"/>
      </g>
     </g>
     <g id="text_12">
      <!-- 20 -->
      <g transform="translate(33.81375 230.235009)scale(0.1 -0.1)">
       <use xlink:href="#DejaVuSans-50"/>
       <use x="63.623047" xlink:href="#DejaVuSans-48"/>
      </g>
     </g>
    </g>
    <g id="ytick_4">
     <g id="line2d_23">
      <path clip-path="url(#p41d5c0bb87)" d="M 53.53875 188.648204 
L 499.93875 188.648204 
" style="fill:none;stroke:#b0b0b0;stroke-linecap:square;stroke-width:0.8;"/>
     </g>
     <g id="line2d_24">
      <g>
       <use style="stroke:#000000;stroke-width:0.8;" x="53.53875" xlink:href="#m8977ea1f62" y="188.648204"/>
      </g>
     </g>
     <g id="text_13">
      <!-- 25 -->
      <g transform="translate(33.81375 192.447423)scale(0.1 -0.1)">
       <use xlink:href="#DejaVuSans-50"/>
       <use x="63.623047" xlink:href="#DejaVuSans-53"/>
      </g>
     </g>
    </g>
    <g id="ytick_5">
     <g id="line2d_25">
      <path clip-path="url(#p41d5c0bb87)" d="M 53.53875 150.860619 
L 499.93875 150.860619 
" style="fill:none;stroke:#b0b0b0;stroke-linecap:square;stroke-width:0.8;"/>
     </g>
     <g id="line2d_26">
      <g>
       <use style="stroke:#000000;stroke-width:0.8;" x="53.53875" xlink:href="#m8977ea1f62" y="150.860619"/>
      </g>
     </g>
     <g id="text_14">
      <!-- 30 -->
      <g transform="translate(33.81375 154.659837)scale(0.1 -0.1)">
       <use xlink:href="#DejaVuSans-51"/>
       <use x="63.623047" xlink:href="#DejaVuSans-48"/>
      </g>
     </g>
    </g>
    <g id="ytick_6">
     <g id="line2d_27">
      <path clip-path="url(#p41d5c0bb87)" d="M 53.53875 113.073033 
L 499.93875 113.073033 
" style="fill:none;stroke:#b0b0b0;stroke-linecap:square;stroke-width:0.8;"/>
     </g>
     <g id="line2d_28">
      <g>
       <use style="stroke:#000000;stroke-width:0.8;" x="53.53875" xlink:href="#m8977ea1f62" y="113.073033"/>
      </g>
     </g>
     <g id="text_15">
      <!-- 35 -->
      <g transform="translate(33.81375 116.872252)scale(0.1 -0.1)">
       <use xlink:href="#DejaVuSans-51"/>
       <use x="63.623047" xlink:href="#DejaVuSans-53"/>
      </g>
     </g>
    </g>
    <g id="ytick_7">
     <g id="line2d_29">
      <path clip-path="url(#p41d5c0bb87)" d="M 53.53875 75.285447 
L 499.93875 75.285447 
" style="fill:none;stroke:#b0b0b0;stroke-linecap:square;stroke-width:0.8;"/>
     </g>
     <g id="line2d_30">
      <g>
       <use style="stroke:#000000;stroke-width:0.8;" x="53.53875" xlink:href="#m8977ea1f62" y="75.285447"/>
      </g>
     </g>
     <g id="text_16">
      <!-- 40 -->
      <defs>
       <path d="M 37.796875 64.3125 
L 12.890625 25.390625 
L 37.796875 25.390625 
z
M 35.203125 72.90625 
L 47.609375 72.90625 
L 47.609375 25.390625 
L 58.015625 25.390625 
L 58.015625 17.1875 
L 47.609375 17.1875 
L 47.609375 0 
L 37.796875 0 
L 37.796875 17.1875 
L 4.890625 17.1875 
L 4.890625 26.703125 
z
" id="DejaVuSans-52"/>
      </defs>
      <g transform="translate(33.81375 79.084666)scale(0.1 -0.1)">
       <use xlink:href="#DejaVuSans-52"/>
       <use x="63.623047" xlink:href="#DejaVuSans-48"/>
      </g>
     </g>
    </g>
    <g id="text_17">
     <!-- Number of categories -->
     <defs>
      <path d="M 34.28125 27.484375 
Q 23.390625 27.484375 19.1875 25 
Q 14.984375 22.515625 14.984375 16.5 
Q 14.984375 11.71875 18.140625 8.90625 
Q 21.296875 6.109375 26.703125 6.109375 
Q 34.1875 6.109375 38.703125 11.40625 
Q 43.21875 16.703125 43.21875 25.484375 
L 43.21875 27.484375 
z
M 52.203125 31.203125 
L 52.203125 0 
L 43.21875 0 
L 43.21875 8.296875 
Q 40.140625 3.328125 35.546875 0.953125 
Q 30.953125 -1.421875 24.3125 -1.421875 
Q 15.921875 -1.421875 10.953125 3.296875 
Q 6 8.015625 6 15.921875 
Q 6 25.140625 12.171875 29.828125 
Q 18.359375 34.515625 30.609375 34.515625 
L 43.21875 34.515625 
L 43.21875 35.40625 
Q 43.21875 41.609375 39.140625 45 
Q 35.0625 48.390625 27.6875 48.390625 
Q 23 48.390625 18.546875 47.265625 
Q 14.109375 46.140625 10.015625 43.890625 
L 10.015625 52.203125 
Q 14.9375 54.109375 19.578125 55.046875 
Q 24.21875 56 28.609375 56 
Q 40.484375 56 46.34375 49.84375 
Q 52.203125 43.703125 52.203125 31.203125 
z
" id="DejaVuSans-97"/>
      <path d="M 45.40625 27.984375 
Q 45.40625 37.75 41.375 43.109375 
Q 37.359375 48.484375 30.078125 48.484375 
Q 22.859375 48.484375 18.828125 43.109375 
Q 14.796875 37.75 14.796875 27.984375 
Q 14.796875 18.265625 18.828125 12.890625 
Q 22.859375 7.515625 30.078125 7.515625 
Q 37.359375 7.515625 41.375 12.890625 
Q 45.40625 18.265625 45.40625 27.984375 
z
M 54.390625 6.78125 
Q 54.390625 -7.171875 48.1875 -13.984375 
Q 42 -20.796875 29.203125 -20.796875 
Q 24.46875 -20.796875 20.265625 -20.09375 
Q 16.0625 -19.390625 12.109375 -17.921875 
L 12.109375 -9.1875 
Q 16.0625 -11.328125 19.921875 -12.34375 
Q 23.78125 -13.375 27.78125 -13.375 
Q 36.625 -13.375 41.015625 -8.765625 
Q 45.40625 -4.15625 45.40625 5.171875 
L 45.40625 9.625 
Q 42.625 4.78125 38.28125 2.390625 
Q 33.9375 0 27.875 0 
Q 17.828125 0 11.671875 7.65625 
Q 5.515625 15.328125 5.515625 27.984375 
Q 5.515625 40.671875 11.671875 48.328125 
Q 17.828125 56 27.875 56 
Q 33.9375 56 38.28125 53.609375 
Q 42.625 51.21875 45.40625 46.390625 
L 45.40625 54.6875 
L 54.390625 54.6875 
z
" id="DejaVuSans-103"/>
      <path d="M 9.421875 54.6875 
L 18.40625 54.6875 
L 18.40625 0 
L 9.421875 0 
z
M 9.421875 75.984375 
L 18.40625 75.984375 
L 18.40625 64.59375 
L 9.421875 64.59375 
z
" id="DejaVuSans-105"/>
     </defs>
     <g transform="translate(16.318125 261.189375)rotate(-90)scale(0.12 -0.12)">
      <use xlink:href="#DejaVuSans-78"/>
      <use x="74.804688" xlink:href="#DejaVuSans-117"/>
      <use x="138.183594" xlink:href="#DejaVuSans-109"/>
      <use x="235.595703" xlink:href="#DejaVuSans-98"/>
      <use x="299.072266" xlink:href="#DejaVuSans-101"/>
      <use x="360.595703" xlink:href="#DejaVuSans-114"/>
      <use x="401.708984" xlink:href="#DejaVuSans-32"/>
      <use x="433.496094" xlink:href="#DejaVuSans-111"/>
      <use x="494.677734" xlink:href="#DejaVuSans-102"/>
      <use x="529.882812" xlink:href="#DejaVuSans-32"/>
      <use x="561.669922" xlink:href="#DejaVuSans-99"/>
      <use x="616.650391" xlink:href="#DejaVuSans-97"/>
      <use x="677.929688" xlink:href="#DejaVuSans-116"/>
      <use x="717.138672" xlink:href="#DejaVuSans-101"/>
      <use x="778.662109" xlink:href="#DejaVuSans-103"/>
      <use x="842.138672" xlink:href="#DejaVuSans-111"/>
      <use x="903.320312" xlink:href="#DejaVuSans-114"/>
      <use x="944.433594" xlink:href="#DejaVuSans-105"/>
      <use x="972.216797" xlink:href="#DejaVuSans-101"/>
      <use x="1033.740234" xlink:href="#DejaVuSans-115"/>
     </g>
    </g>
   </g>
   <g id="PathCollection_1">
    <defs>
     <path d="M 0 17.722867 
C 4.700159 17.722867 9.208445 15.855474 12.531959 12.531959 
C 15.855474 9.208445 17.722867 4.700159 17.722867 0 
C 17.722867 -4.700159 15.855474 -9.208445 12.531959 -12.531959 
C 9.208445 -15.855474 4.700159 -17.722867 0 -17.722867 
C -4.700159 -17.722867 -9.208445 -15.855474 -12.531959 -12.531959 
C -15.855474 -9.208445 -17.722867 -4.700159 -17.722867 0 
C -17.722867 4.700159 -15.855474 9.208445 -12.531959 12.531959 
C -9.208445 15.855474 -4.700159 17.722867 0 17.722867 
z
" id="m675e360dad" style="stroke:#ffffff;"/>
    </defs>
    <g clip-path="url(#p41d5c0bb87)">
     <use style="fill:#393b79;stroke:#ffffff;" x="211.979313" xlink:href="#m675e360dad" y="188.648204"/>
    </g>
   </g>
   <g id="PathCollection_2">
    <defs>
     <path d="M 0 5.282045 
C 1.400815 5.282045 2.744444 4.725495 3.73497 3.73497 
C 4.725495 2.744444 5.282045 1.400815 5.282045 0 
C 5.282045 -1.400815 4.725495 -2.744444 3.73497 -3.73497 
C 2.744444 -4.725495 1.400815 -5.282045 0 -5.282045 
C -1.400815 -5.282045 -2.744444 -4.725495 -3.73497 -3.73497 
C -4.725495 -2.744444 -5.282045 -1.400815 -5.282045 0 
C -5.282045 1.400815 -4.725495 2.744444 -3.73497 3.73497 
C -2.744444 4.725495 -1.400815 5.282045 0 5.282045 
z
" id="me9e61facf0" style="stroke:#ffffff;"/>
    </defs>
    <g clip-path="url(#p41d5c0bb87)">
     <use style="fill:#5254a3;stroke:#ffffff;" x="96.292553" xlink:href="#me9e61facf0" y="264.223376"/>
    </g>
   </g>
   <g id="PathCollection_3">
    <path clip-path="url(#p41d5c0bb87)" d="M 357.845229 92.326574 
C 362.364589 92.326574 366.699455 90.531013 369.895125 87.335344 
C 373.090795 84.139674 374.886356 79.804807 374.886356 75.285447 
C 374.886356 70.766088 373.090795 66.431221 369.895125 63.235551 
C 366.699455 60.039881 362.364589 58.244321 357.845229 58.244321 
C 353.325869 58.244321 348.991002 60.039881 345.795333 63.235551 
C 342.599663 66.431221 340.804102 70.766088 340.804102 75.285447 
C 340.804102 79.804807 342.599663 84.139674 345.795333 87.335344 
C 348.991002 90.531013 353.325869 92.326574 357.845229 92.326574 
z
" style="fill:#6b6ecf;stroke:#ffffff;"/>
    <path clip-path="url(#p41d5c0bb87)" d="M 318.86382 127.303282 
C 322.637727 127.303282 326.257572 125.803894 328.926126 123.135339 
C 331.594681 120.466784 333.09407 116.846939 333.09407 113.073033 
C 333.09407 109.299127 331.594681 105.679282 328.926126 103.010727 
C 326.257572 100.342172 322.637727 98.842784 318.86382 98.842784 
C 315.089914 98.842784 311.470069 100.342172 308.801515 103.010727 
C 306.13296 105.679282 304.633571 109.299127 304.633571 113.073033 
C 304.633571 116.846939 306.13296 120.466784 308.801515 123.135339 
C 311.470069 125.803894 315.089914 127.303282 318.86382 127.303282 
z
" style="fill:#6b6ecf;stroke:#ffffff;"/>
   </g>
   <g id="PathCollection_4">
    <path clip-path="url(#p41d5c0bb87)" d="M 128.986637 268.466017 
C 130.111799 268.466017 131.191028 268.018985 131.986637 267.223376 
C 132.782247 266.427767 133.229278 265.348537 133.229278 264.223376 
C 133.229278 263.098214 132.782247 262.018985 131.986637 261.223376 
C 131.191028 260.427767 130.111799 259.980735 128.986637 259.980735 
C 127.861476 259.980735 126.782247 260.427767 125.986637 261.223376 
C 125.191028 262.018985 124.743997 263.098214 124.743997 264.223376 
C 124.743997 265.348537 125.191028 266.427767 125.986637 267.223376 
C 126.782247 268.018985 127.861476 268.466017 128.986637 268.466017 
z
" style="fill:#9c9ede;stroke:#ffffff;"/>
    <path clip-path="url(#p41d5c0bb87)" d="M 145.33368 246.510663 
C 146.649044 246.510663 147.910712 245.988063 148.840815 245.05796 
C 149.770918 244.127857 150.293518 242.866189 150.293518 241.550824 
C 150.293518 240.23546 149.770918 238.973792 148.840815 238.043689 
C 147.910712 237.113586 146.649044 236.590986 145.33368 236.590986 
C 144.018315 236.590986 142.756647 237.113586 141.826544 238.043689 
C 140.896441 238.973792 140.373841 240.23546 140.373841 241.550824 
C 140.373841 242.866189 140.896441 244.127857 141.826544 245.05796 
C 142.756647 245.988063 144.018315 246.510663 145.33368 246.510663 
z
" style="fill:#9c9ede;stroke:#ffffff;"/>
   </g>
   <g id="PathCollection_5">
    <defs>
     <path d="M 0 14.429137 
C 3.826652 14.429137 7.497089 12.908792 10.202941 10.202941 
C 12.908792 7.497089 14.429137 3.826652 14.429137 0 
C 14.429137 -3.826652 12.908792 -7.497089 10.202941 -10.202941 
C 7.497089 -12.908792 3.826652 -14.429137 0 -14.429137 
C -3.826652 -14.429137 -7.497089 -12.908792 -10.202941 -10.202941 
C -12.908792 -7.497089 -14.429137 -3.826652 -14.429137 0 
C -14.429137 3.826652 -12.908792 7.497089 -10.202941 10.202941 
C -7.497089 12.908792 -3.826652 14.429137 0 14.429137 
z
" id="mbd6adba713" style="stroke:#ffffff;"/>
    </defs>
    <g clip-path="url(#p41d5c0bb87)">
     <use style="fill:#637939;stroke:#ffffff;" x="437.065511" xlink:href="#mbd6adba713" y="90.400482"/>
    </g>
   </g>
   <g id="PathCollection_6">
    <defs>
     <path d="M 0 6.708204 
C 1.779036 6.708204 3.485448 6.001385 4.743416 4.743416 
C 6.001385 3.485448 6.708204 1.779036 6.708204 0 
C 6.708204 -1.779036 6.001385 -3.485448 4.743416 -4.743416 
C 3.485448 -6.001385 1.779036 -6.708204 0 -6.708204 
C -1.779036 -6.708204 -3.485448 -6.001385 -4.743416 -4.743416 
C -6.001385 -3.485448 -6.708204 -1.779036 -6.708204 0 
C -6.708204 1.779036 -6.001385 3.485448 -4.743416 4.743416 
C -3.485448 6.001385 -1.779036 6.708204 0 6.708204 
z
" id="mb5878fe4e7" style="stroke:#ffffff;"/>
    </defs>
    <g clip-path="url(#p41d5c0bb87)">
     <use style="fill:#8ca252;stroke:#ffffff;" x="110.124665" xlink:href="#mb5878fe4e7" y="249.108342"/>
    </g>
   </g>
   <g id="PathCollection_7">
    <defs>
     <path d="M 0 7.489993 
C 1.986369 7.489993 3.89165 6.7008 5.296225 5.296225 
C 6.7008 3.89165 7.489993 1.986369 7.489993 0 
C 7.489993 -1.986369 6.7008 -3.89165 5.296225 -5.296225 
C 3.89165 -6.7008 1.986369 -7.489993 0 -7.489993 
C -1.986369 -7.489993 -3.89165 -6.7008 -5.296225 -5.296225 
C -6.7008 -3.89165 -7.489993 -1.986369 -7.489993 0 
C -7.489993 1.986369 -6.7008 3.89165 -5.296225 5.296225 
C -3.89165 6.7008 -1.986369 7.489993 0 7.489993 
z
" id="md200d488bb" style="stroke:#ffffff;"/>
    </defs>
    <g clip-path="url(#p41d5c0bb87)">
     <use style="fill:#b5cf6b;stroke:#ffffff;" x="167.968046" xlink:href="#md200d488bb" y="188.648204"/>
    </g>
   </g>
   <g id="PathCollection_8">
    <path clip-path="url(#p41d5c0bb87)" d="M 110.124665 314.183671 
C 111.348629 314.183671 112.522627 313.697385 113.388099 312.831913 
C 114.253572 311.96644 114.739858 310.792442 114.739858 309.568479 
C 114.739858 308.344516 114.253572 307.170518 113.388099 306.305045 
C 112.522627 305.439572 111.348629 304.953287 110.124665 304.953287 
C 108.900702 304.953287 107.726704 305.439572 106.861232 306.305045 
C 105.995759 307.170518 105.509473 308.344516 105.509473 309.568479 
C 105.509473 310.792442 105.995759 311.96644 106.861232 312.831913 
C 107.726704 313.697385 108.900702 314.183671 110.124665 314.183671 
z
" style="fill:#cedb9c;stroke:#ffffff;"/>
    <path clip-path="url(#p41d5c0bb87)" d="M 116.411989 261.745229 
C 117.759054 261.745229 119.051128 261.210034 120.003646 260.257516 
C 120.956165 259.304997 121.491359 258.012923 121.491359 256.665859 
C 121.491359 255.318794 120.956165 254.02672 120.003646 253.074202 
C 119.051128 252.121683 117.759054 251.586489 116.411989 251.586489 
C 115.064925 251.586489 113.772851 252.121683 112.820332 253.074202 
C 111.867814 254.02672 111.332619 255.318794 111.332619 256.665859 
C 111.332619 258.012923 111.867814 259.304997 112.820332 260.257516 
C 113.772851 261.210034 115.064925 261.745229 116.411989 261.745229 
z
" style="fill:#cedb9c;stroke:#ffffff;"/>
   </g>
   <g id="PathCollection_9">
    <path clip-path="url(#p41d5c0bb87)" d="M 310.061567 138.963038 
C 312.919123 138.963038 315.660025 137.827719 317.680622 135.807122 
C 319.701219 133.786525 320.836538 131.045623 320.836538 128.188067 
C 320.836538 125.330512 319.701219 122.589609 317.680622 120.569012 
C 315.660025 118.548415 312.919123 117.413096 310.061567 117.413096 
C 307.204011 117.413096 304.463109 118.548415 302.442512 120.569012 
C 300.421915 122.589609 299.286596 125.330512 299.286596 128.188067 
C 299.286596 131.045623 300.421915 133.786525 302.442512 135.807122 
C 304.463109 137.827719 307.204011 138.963038 310.061567 138.963038 
z
" style="fill:#8c6d31;stroke:#ffffff;"/>
    <path clip-path="url(#p41d5c0bb87)" d="M 377.964665 155.328076 
C 381.153726 155.328076 384.2126 154.061048 386.467606 151.806042 
C 388.722612 149.551036 389.98964 146.492162 389.98964 143.303102 
C 389.98964 140.114041 388.722612 137.055167 386.467606 134.800161 
C 384.2126 132.545155 381.153726 131.278128 377.964665 131.278128 
C 374.775605 131.278128 371.716731 132.545155 369.461725 134.800161 
C 367.206719 137.055167 365.939691 140.114041 365.939691 143.303102 
C 365.939691 146.492162 367.206719 149.551036 369.461725 151.806042 
C 371.716731 154.061048 374.775605 155.328076 377.964665 155.328076 
z
" style="fill:#8c6d31;stroke:#ffffff;"/>
   </g>
   <g id="PathCollection_10">
    <defs>
     <path d="M 0 8.01249 
C 2.124937 8.01249 4.163129 7.168244 5.665686 5.665686 
C 7.168244 4.163129 8.01249 2.124937 8.01249 0 
C 8.01249 -2.124937 7.168244 -4.163129 5.665686 -5.665686 
C 4.163129 -7.168244 2.124937 -8.01249 0 -8.01249 
C -2.124937 -8.01249 -4.163129 -7.168244 -5.665686 -5.665686 
C -7.168244 -4.163129 -8.01249 -2.124937 -8.01249 0 
C -8.01249 2.124937 -7.168244 4.163129 -5.665686 5.665686 
C -4.163129 7.168244 -2.124937 8.01249 0 8.01249 
z
" id="m43374016a9" style="stroke:#ffffff;"/>
    </defs>
    <g clip-path="url(#p41d5c0bb87)">
     <use style="fill:#bd9e39;stroke:#ffffff;" x="127.729173" xlink:href="#m43374016a9" y="271.780893"/>
    </g>
   </g>
   <g id="PathCollection_11">
    <path clip-path="url(#p41d5c0bb87)" d="M 172.997905 215.700575 
C 176.163724 215.700575 179.200305 214.442782 181.438876 212.20421 
C 183.677448 209.965638 184.935241 206.929057 184.935241 203.763239 
C 184.935241 200.59742 183.677448 197.560839 181.438876 195.322267 
C 179.200305 193.083695 176.163724 191.825902 172.997905 191.825902 
C 169.832086 191.825902 166.795505 193.083695 164.556933 195.322267 
C 162.318362 197.560839 161.060569 200.59742 161.060569 203.763239 
C 161.060569 206.929057 162.318362 209.965638 164.556933 212.20421 
C 166.795505 214.442782 169.832086 215.700575 172.997905 215.700575 
z
" style="fill:#e7ba52;stroke:#ffffff;"/>
    <path clip-path="url(#p41d5c0bb87)" d="M 84.97537 322.115986 
C 86.298731 322.115986 87.568068 321.590209 88.503825 320.654452 
C 89.439583 319.718694 89.96536 318.449357 89.96536 317.125996 
C 89.96536 315.802635 89.439583 314.533298 88.503825 313.59754 
C 87.568068 312.661783 86.298731 312.136006 84.97537 312.136006 
C 83.652009 312.136006 82.382671 312.661783 81.446914 313.59754 
C 80.511157 314.533298 79.98538 315.802635 79.98538 317.125996 
C 79.98538 318.449357 80.511157 319.718694 81.446914 320.654452 
C 82.382671 321.590209 83.652009 322.115986 84.97537 322.115986 
z
" style="fill:#e7ba52;stroke:#ffffff;"/>
   </g>
   <g id="PathCollection_12">
    <path clip-path="url(#p41d5c0bb87)" d="M 160.423257 164.852419 
C 162.129649 164.852419 163.766381 164.174462 164.972982 162.967861 
C 166.179584 161.76126 166.85754 160.124528 166.85754 158.418136 
C 166.85754 156.711744 166.179584 155.075012 164.972982 153.868411 
C 163.766381 152.661809 162.129649 151.983853 160.423257 151.983853 
C 158.716865 151.983853 157.080133 152.661809 155.873532 153.868411 
C 154.666931 155.075012 153.988974 156.711744 153.988974 158.418136 
C 153.988974 160.124528 154.666931 161.76126 155.873532 162.967861 
C 157.080133 164.174462 158.716865 164.852419 160.423257 164.852419 
z
" style="fill:#e7cb94;stroke:#ffffff;"/>
    <path clip-path="url(#p41d5c0bb87)" d="M 230.841285 183.452848 
C 233.472014 183.452848 235.99535 182.407648 237.855556 180.547441 
C 239.715763 178.687235 240.760963 176.163899 240.760963 173.53317 
C 240.760963 170.902441 239.715763 168.379105 237.855556 166.518899 
C 235.99535 164.658693 233.472014 163.613493 230.841285 163.613493 
C 228.210556 163.613493 225.687221 164.658693 223.827014 166.518899 
C 221.966808 168.379105 220.921608 170.902441 220.921608 173.53317 
C 220.921608 176.163899 221.966808 178.687235 223.827014 180.547441 
C 225.687221 182.407648 228.210556 183.452848 230.841285 183.452848 
z
" style="fill:#e7cb94;stroke:#ffffff;"/>
   </g>
   <g id="PathCollection_13"/>
   <g id="PathCollection_14"/>
   <g id="patch_3">
    <path d="M 53.53875 334.637812 
L 53.53875 57.437813 
" style="fill:none;stroke:#000000;stroke-linecap:square;stroke-linejoin:miter;stroke-width:0.8;"/>
   </g>
   <g id="patch_4">
    <path d="M 499.93875 334.637812 
L 499.93875 57.437813 
" style="fill:none;stroke:#000000;stroke-linecap:square;stroke-linejoin:miter;stroke-width:0.8;"/>
   </g>
   <g id="patch_5">
    <path d="M 53.53875 334.637812 
L 499.93875 334.637812 
" style="fill:none;stroke:#000000;stroke-linecap:square;stroke-linejoin:miter;stroke-width:0.8;"/>
   </g>
   <g id="patch_6">
    <path d="M 53.53875 57.437813 
L 499.93875 57.437813 
" style="fill:none;stroke:#000000;stroke-linecap:square;stroke-linejoin:miter;stroke-width:0.8;"/>
   </g>
   <g id="text_18">
    <!-- Number of objects and categories per survey. -->
    <defs>
     <path d="M 54.890625 33.015625 
L 54.890625 0 
L 45.90625 0 
L 45.90625 32.71875 
Q 45.90625 40.484375 42.875 44.328125 
Q 39.84375 48.1875 33.796875 48.1875 
Q 26.515625 48.1875 22.3125 43.546875 
Q 18.109375 38.921875 18.109375 30.90625 
L 18.109375 0 
L 9.078125 0 
L 9.078125 54.6875 
L 18.109375 54.6875 
L 18.109375 46.1875 
Q 21.34375 51.125 25.703125 53.5625 
Q 30.078125 56 35.796875 56 
Q 45.21875 56 50.046875 50.171875 
Q 54.890625 44.34375 54.890625 33.015625 
z
" id="DejaVuSans-110"/>
     <path d="M 2.984375 54.6875 
L 12.5 54.6875 
L 29.59375 8.796875 
L 46.6875 54.6875 
L 56.203125 54.6875 
L 35.6875 0 
L 23.484375 0 
z
" id="DejaVuSans-118"/>
     <path d="M 32.171875 -5.078125 
Q 28.375 -14.84375 24.75 -17.8125 
Q 21.140625 -20.796875 15.09375 -20.796875 
L 7.90625 -20.796875 
L 7.90625 -13.28125 
L 13.1875 -13.28125 
Q 16.890625 -13.28125 18.9375 -11.515625 
Q 21 -9.765625 23.484375 -3.21875 
L 25.09375 0.875 
L 2.984375 54.6875 
L 12.5 54.6875 
L 29.59375 11.921875 
L 46.6875 54.6875 
L 56.203125 54.6875 
z
" id="DejaVuSans-121"/>
     <path d="M 10.6875 12.40625 
L 21 12.40625 
L 21 0 
L 10.6875 0 
z
" id="DejaVuSans-46"/>
    </defs>
    <g transform="translate(53.53875 42.437813)scale(0.12 -0.12)">
     <use xlink:href="#DejaVuSans-78"/>
     <use x="74.804688" xlink:href="#DejaVuSans-117"/>
     <use x="138.183594" xlink:href="#DejaVuSans-109"/>
     <use x="235.595703" xlink:href="#DejaVuSans-98"/>
     <use x="299.072266" xlink:href="#DejaVuSans-101"/>
     <use x="360.595703" xlink:href="#DejaVuSans-114"/>
     <use x="401.708984" xlink:href="#DejaVuSans-32"/>
     <use x="433.496094" xlink:href="#DejaVuSans-111"/>
     <use x="494.677734" xlink:href="#DejaVuSans-102"/>
     <use x="529.882812" xlink:href="#DejaVuSans-32"/>
     <use x="561.669922" xlink:href="#DejaVuSans-111"/>
     <use x="622.851562" xlink:href="#DejaVuSans-98"/>
     <use x="686.328125" xlink:href="#DejaVuSans-106"/>
     <use x="714.111328" xlink:href="#DejaVuSans-101"/>
     <use x="775.634766" xlink:href="#DejaVuSans-99"/>
     <use x="830.615234" xlink:href="#DejaVuSans-116"/>
     <use x="869.824219" xlink:href="#DejaVuSans-115"/>
     <use x="921.923828" xlink:href="#DejaVuSans-32"/>
     <use x="953.710938" xlink:href="#DejaVuSans-97"/>
     <use x="1014.990234" xlink:href="#DejaVuSans-110"/>
     <use x="1078.369141" xlink:href="#DejaVuSans-100"/>
     <use x="1141.845703" xlink:href="#DejaVuSans-32"/>
     <use x="1173.632812" xlink:href="#DejaVuSans-99"/>
     <use x="1228.613281" xlink:href="#DejaVuSans-97"/>
     <use x="1289.892578" xlink:href="#DejaVuSans-116"/>
     <use x="1329.101562" xlink:href="#DejaVuSans-101"/>
     <use x="1390.625" xlink:href="#DejaVuSans-103"/>
     <use x="1454.101562" xlink:href="#DejaVuSans-111"/>
     <use x="1515.283203" xlink:href="#DejaVuSans-114"/>
     <use x="1556.396484" xlink:href="#DejaVuSans-105"/>
     <use x="1584.179688" xlink:href="#DejaVuSans-101"/>
     <use x="1645.703125" xlink:href="#DejaVuSans-115"/>
     <use x="1697.802734" xlink:href="#DejaVuSans-32"/>
     <use x="1729.589844" xlink:href="#DejaVuSans-112"/>
     <use x="1793.066406" xlink:href="#DejaVuSans-101"/>
     <use x="1854.589844" xlink:href="#DejaVuSans-114"/>
     <use x="1895.703125" xlink:href="#DejaVuSans-32"/>
     <use x="1927.490234" xlink:href="#DejaVuSans-115"/>
     <use x="1979.589844" xlink:href="#DejaVuSans-117"/>
     <use x="2042.96875" xlink:href="#DejaVuSans-114"/>
     <use x="2084.082031" xlink:href="#DejaVuSans-118"/>
     <use x="2143.261719" xlink:href="#DejaVuSans-101"/>
     <use x="2204.785156" xlink:href="#DejaVuSans-121"/>
     <use x="2263.746094" xlink:href="#DejaVuSans-46"/>
    </g>
   </g>
   <g id="legend_1">
    <g id="patch_7">
     <path d="M 524.79475 257.922188 
L 761.736938 257.922188 
Q 763.736938 257.922188 763.736938 255.922188 
L 763.736938 64.437813 
Q 763.736938 62.437813 761.736938 62.437813 
L 524.79475 62.437813 
Q 522.79475 62.437813 522.79475 64.437813 
L 522.79475 255.922188 
Q 522.79475 257.922188 524.79475 257.922188 
z
" style="fill:#ffffff;opacity:0.8;stroke:#cccccc;stroke-linejoin:miter;"/>
    </g>
    <g id="text_19">
     <!-- Locations -->
     <defs>
      <path d="M 9.8125 72.90625 
L 19.671875 72.90625 
L 19.671875 8.296875 
L 55.171875 8.296875 
L 55.171875 0 
L 9.8125 0 
z
" id="DejaVuSans-76"/>
     </defs>
     <g transform="translate(619.426 74.03625)scale(0.1 -0.1)">
      <use xlink:href="#DejaVuSans-76"/>
      <use x="55.697266" xlink:href="#DejaVuSans-111"/>
      <use x="116.878906" xlink:href="#DejaVuSans-99"/>
      <use x="171.859375" xlink:href="#DejaVuSans-97"/>
      <use x="233.138672" xlink:href="#DejaVuSans-116"/>
      <use x="272.347656" xlink:href="#DejaVuSans-105"/>
      <use x="300.130859" xlink:href="#DejaVuSans-111"/>
      <use x="361.3125" xlink:href="#DejaVuSans-110"/>
      <use x="424.691406" xlink:href="#DejaVuSans-115"/>
     </g>
    </g>
    <g id="PathCollection_15">
     <defs>
      <path d="M 0 5 
C 1.326016 5 2.597899 4.473168 3.535534 3.535534 
C 4.473168 2.597899 5 1.326016 5 0 
C 5 -1.326016 4.473168 -2.597899 3.535534 -3.535534 
C 2.597899 -4.473168 1.326016 -5 0 -5 
C -1.326016 -5 -2.597899 -4.473168 -3.535534 -3.535534 
C -4.473168 -2.597899 -5 -1.326016 -5 0 
C -5 1.326016 -4.473168 2.597899 -3.535534 3.535534 
C -2.597899 4.473168 -1.326016 5 0 5 
z
" id="m22f5a8f659" style="stroke:#ffffff;"/>
     </defs>
     <g>
      <use style="fill:#393b79;stroke:#ffffff;" x="536.79475" xlink:href="#m22f5a8f659" y="86.089375"/>
     </g>
    </g>
    <g id="text_20">
     <!-- bielersee_vinelz_fankhausers -->
     <defs>
      <path d="M 9.421875 75.984375 
L 18.40625 75.984375 
L 18.40625 0 
L 9.421875 0 
z
" id="DejaVuSans-108"/>
      <path d="M 50.984375 -16.609375 
L 50.984375 -23.578125 
L -0.984375 -23.578125 
L -0.984375 -16.609375 
z
" id="DejaVuSans-95"/>
      <path d="M 5.515625 54.6875 
L 48.1875 54.6875 
L 48.1875 46.484375 
L 14.40625 7.171875 
L 48.1875 7.171875 
L 48.1875 0 
L 4.296875 0 
L 4.296875 8.203125 
L 38.09375 47.515625 
L 5.515625 47.515625 
z
" id="DejaVuSans-122"/>
      <path d="M 9.078125 75.984375 
L 18.109375 75.984375 
L 18.109375 31.109375 
L 44.921875 54.6875 
L 56.390625 54.6875 
L 27.390625 29.109375 
L 57.625 0 
L 45.90625 0 
L 18.109375 26.703125 
L 18.109375 0 
L 9.078125 0 
z
" id="DejaVuSans-107"/>
      <path d="M 54.890625 33.015625 
L 54.890625 0 
L 45.90625 0 
L 45.90625 32.71875 
Q 45.90625 40.484375 42.875 44.328125 
Q 39.84375 48.1875 33.796875 48.1875 
Q 26.515625 48.1875 22.3125 43.546875 
Q 18.109375 38.921875 18.109375 30.90625 
L 18.109375 0 
L 9.078125 0 
L 9.078125 75.984375 
L 18.109375 75.984375 
L 18.109375 46.1875 
Q 21.34375 51.125 25.703125 53.5625 
Q 30.078125 56 35.796875 56 
Q 45.21875 56 50.046875 50.171875 
Q 54.890625 44.34375 54.890625 33.015625 
z
" id="DejaVuSans-104"/>
     </defs>
     <g transform="translate(554.79475 88.714375)scale(0.1 -0.1)">
      <use xlink:href="#DejaVuSans-98"/>
      <use x="63.476562" xlink:href="#DejaVuSans-105"/>
      <use x="91.259766" xlink:href="#DejaVuSans-101"/>
      <use x="152.783203" xlink:href="#DejaVuSans-108"/>
      <use x="180.566406" xlink:href="#DejaVuSans-101"/>
      <use x="242.089844" xlink:href="#DejaVuSans-114"/>
      <use x="283.203125" xlink:href="#DejaVuSans-115"/>
      <use x="335.302734" xlink:href="#DejaVuSans-101"/>
      <use x="396.826172" xlink:href="#DejaVuSans-101"/>
      <use x="458.349609" xlink:href="#DejaVuSans-95"/>
      <use x="508.349609" xlink:href="#DejaVuSans-118"/>
      <use x="567.529297" xlink:href="#DejaVuSans-105"/>
      <use x="595.3125" xlink:href="#DejaVuSans-110"/>
      <use x="658.691406" xlink:href="#DejaVuSans-101"/>
      <use x="720.214844" xlink:href="#DejaVuSans-108"/>
      <use x="747.998047" xlink:href="#DejaVuSans-122"/>
      <use x="800.488281" xlink:href="#DejaVuSans-95"/>
      <use x="850.488281" xlink:href="#DejaVuSans-102"/>
      <use x="885.693359" xlink:href="#DejaVuSans-97"/>
      <use x="946.972656" xlink:href="#DejaVuSans-110"/>
      <use x="1010.351562" xlink:href="#DejaVuSans-107"/>
      <use x="1068.261719" xlink:href="#DejaVuSans-104"/>
      <use x="1131.640625" xlink:href="#DejaVuSans-97"/>
      <use x="1192.919922" xlink:href="#DejaVuSans-117"/>
      <use x="1256.298828" xlink:href="#DejaVuSans-115"/>
      <use x="1308.398438" xlink:href="#DejaVuSans-101"/>
      <use x="1369.921875" xlink:href="#DejaVuSans-114"/>
      <use x="1411.035156" xlink:href="#DejaVuSans-115"/>
     </g>
    </g>
    <g id="PathCollection_16">
     <defs>
      <path d="M 0 5 
C 1.326016 5 2.597899 4.473168 3.535534 3.535534 
C 4.473168 2.597899 5 1.326016 5 0 
C 5 -1.326016 4.473168 -2.597899 3.535534 -3.535534 
C 2.597899 -4.473168 1.326016 -5 0 -5 
C -1.326016 -5 -2.597899 -4.473168 -3.535534 -3.535534 
C -4.473168 -2.597899 -5 -1.326016 -5 0 
C -5 1.326016 -4.473168 2.597899 -3.535534 3.535534 
C -2.597899 4.473168 -1.326016 5 0 5 
z
" id="mf1516845fe" style="stroke:#ffffff;"/>
     </defs>
     <g>
      <use style="fill:#5254a3;stroke:#ffffff;" x="536.79475" xlink:href="#mf1516845fe" y="101.045625"/>
     </g>
    </g>
    <g id="text_21">
     <!-- gasi-strand -->
     <defs>
      <path d="M 4.890625 31.390625 
L 31.203125 31.390625 
L 31.203125 23.390625 
L 4.890625 23.390625 
z
" id="DejaVuSans-45"/>
     </defs>
     <g transform="translate(554.79475 103.670625)scale(0.1 -0.1)">
      <use xlink:href="#DejaVuSans-103"/>
      <use x="63.476562" xlink:href="#DejaVuSans-97"/>
      <use x="124.755859" xlink:href="#DejaVuSans-115"/>
      <use x="176.855469" xlink:href="#DejaVuSans-105"/>
      <use x="204.638672" xlink:href="#DejaVuSans-45"/>
      <use x="240.722656" xlink:href="#DejaVuSans-115"/>
      <use x="292.822266" xlink:href="#DejaVuSans-116"/>
      <use x="332.03125" xlink:href="#DejaVuSans-114"/>
      <use x="373.144531" xlink:href="#DejaVuSans-97"/>
      <use x="434.423828" xlink:href="#DejaVuSans-110"/>
      <use x="497.802734" xlink:href="#DejaVuSans-100"/>
     </g>
    </g>
    <g id="PathCollection_17">
     <defs>
      <path d="M 0 5 
C 1.326016 5 2.597899 4.473168 3.535534 3.535534 
C 4.473168 2.597899 5 1.326016 5 0 
C 5 -1.326016 4.473168 -2.597899 3.535534 -3.535534 
C 2.597899 -4.473168 1.326016 -5 0 -5 
C -1.326016 -5 -2.597899 -4.473168 -3.535534 -3.535534 
C -4.473168 -2.597899 -5 -1.326016 -5 0 
C -5 1.326016 -4.473168 2.597899 -3.535534 3.535534 
C -2.597899 4.473168 -1.326016 5 0 5 
z
" id="m61464c99da" style="stroke:#ffffff;"/>
     </defs>
     <g>
      <use style="fill:#6b6ecf;stroke:#ffffff;" x="536.79475" xlink:href="#m61464c99da" y="115.72375"/>
     </g>
    </g>
    <g id="text_22">
     <!-- mullermatte -->
     <g transform="translate(554.79475 118.34875)scale(0.1 -0.1)">
      <use xlink:href="#DejaVuSans-109"/>
      <use x="97.412109" xlink:href="#DejaVuSans-117"/>
      <use x="160.791016" xlink:href="#DejaVuSans-108"/>
      <use x="188.574219" xlink:href="#DejaVuSans-108"/>
      <use x="216.357422" xlink:href="#DejaVuSans-101"/>
      <use x="277.880859" xlink:href="#DejaVuSans-114"/>
      <use x="318.978516" xlink:href="#DejaVuSans-109"/>
      <use x="416.390625" xlink:href="#DejaVuSans-97"/>
      <use x="477.669922" xlink:href="#DejaVuSans-116"/>
      <use x="516.878906" xlink:href="#DejaVuSans-116"/>
      <use x="556.087891" xlink:href="#DejaVuSans-101"/>
     </g>
    </g>
    <g id="PathCollection_18">
     <defs>
      <path d="M 0 5 
C 1.326016 5 2.597899 4.473168 3.535534 3.535534 
C 4.473168 2.597899 5 1.326016 5 0 
C 5 -1.326016 4.473168 -2.597899 3.535534 -3.535534 
C 2.597899 -4.473168 1.326016 -5 0 -5 
C -1.326016 -5 -2.597899 -4.473168 -3.535534 -3.535534 
C -4.473168 -2.597899 -5 -1.326016 -5 0 
C -5 1.326016 -4.473168 2.597899 -3.535534 3.535534 
C -2.597899 4.473168 -1.326016 5 0 5 
z
" id="m43d5639e00" style="stroke:#ffffff;"/>
     </defs>
     <g>
      <use style="fill:#9c9ede;stroke:#ffffff;" x="536.79475" xlink:href="#m43d5639e00" y="130.401875"/>
     </g>
    </g>
    <g id="text_23">
     <!-- plage-de-cheyres -->
     <g transform="translate(554.79475 133.026875)scale(0.1 -0.1)">
      <use xlink:href="#DejaVuSans-112"/>
      <use x="63.476562" xlink:href="#DejaVuSans-108"/>
      <use x="91.259766" xlink:href="#DejaVuSans-97"/>
      <use x="152.539062" xlink:href="#DejaVuSans-103"/>
      <use x="216.015625" xlink:href="#DejaVuSans-101"/>
      <use x="277.539062" xlink:href="#DejaVuSans-45"/>
      <use x="313.623047" xlink:href="#DejaVuSans-100"/>
      <use x="377.099609" xlink:href="#DejaVuSans-101"/>
      <use x="438.623047" xlink:href="#DejaVuSans-45"/>
      <use x="474.707031" xlink:href="#DejaVuSans-99"/>
      <use x="529.6875" xlink:href="#DejaVuSans-104"/>
      <use x="593.066406" xlink:href="#DejaVuSans-101"/>
      <use x="654.589844" xlink:href="#DejaVuSans-121"/>
      <use x="713.769531" xlink:href="#DejaVuSans-114"/>
      <use x="754.851562" xlink:href="#DejaVuSans-101"/>
      <use x="816.375" xlink:href="#DejaVuSans-115"/>
     </g>
    </g>
    <g id="PathCollection_19">
     <defs>
      <path d="M 0 5 
C 1.326016 5 2.597899 4.473168 3.535534 3.535534 
C 4.473168 2.597899 5 1.326016 5 0 
C 5 -1.326016 4.473168 -2.597899 3.535534 -3.535534 
C 2.597899 -4.473168 1.326016 -5 0 -5 
C -1.326016 -5 -2.597899 -4.473168 -3.535534 -3.535534 
C -4.473168 -2.597899 -5 -1.326016 -5 0 
C -5 1.326016 -4.473168 2.597899 -3.535534 3.535534 
C -2.597899 4.473168 -1.326016 5 0 5 
z
" id="m4ba893ceae" style="stroke:#ffffff;"/>
     </defs>
     <g>
      <use style="fill:#637939;stroke:#ffffff;" x="536.79475" xlink:href="#m4ba893ceae" y="145.08"/>
     </g>
    </g>
    <g id="text_24">
     <!-- quai-maria-belgia -->
     <defs>
      <path d="M 14.796875 27.296875 
Q 14.796875 17.390625 18.875 11.75 
Q 22.953125 6.109375 30.078125 6.109375 
Q 37.203125 6.109375 41.296875 11.75 
Q 45.40625 17.390625 45.40625 27.296875 
Q 45.40625 37.203125 41.296875 42.84375 
Q 37.203125 48.484375 30.078125 48.484375 
Q 22.953125 48.484375 18.875 42.84375 
Q 14.796875 37.203125 14.796875 27.296875 
z
M 45.40625 8.203125 
Q 42.578125 3.328125 38.25 0.953125 
Q 33.9375 -1.421875 27.875 -1.421875 
Q 17.96875 -1.421875 11.734375 6.484375 
Q 5.515625 14.40625 5.515625 27.296875 
Q 5.515625 40.1875 11.734375 48.09375 
Q 17.96875 56 27.875 56 
Q 33.9375 56 38.25 53.625 
Q 42.578125 51.265625 45.40625 46.390625 
L 45.40625 54.6875 
L 54.390625 54.6875 
L 54.390625 -20.796875 
L 45.40625 -20.796875 
z
" id="DejaVuSans-113"/>
     </defs>
     <g transform="translate(554.79475 147.705)scale(0.1 -0.1)">
      <use xlink:href="#DejaVuSans-113"/>
      <use x="63.476562" xlink:href="#DejaVuSans-117"/>
      <use x="126.855469" xlink:href="#DejaVuSans-97"/>
      <use x="188.134766" xlink:href="#DejaVuSans-105"/>
      <use x="215.917969" xlink:href="#DejaVuSans-45"/>
      <use x="252.001953" xlink:href="#DejaVuSans-109"/>
      <use x="349.414062" xlink:href="#DejaVuSans-97"/>
      <use x="410.693359" xlink:href="#DejaVuSans-114"/>
      <use x="451.806641" xlink:href="#DejaVuSans-105"/>
      <use x="479.589844" xlink:href="#DejaVuSans-97"/>
      <use x="540.869141" xlink:href="#DejaVuSans-45"/>
      <use x="576.953125" xlink:href="#DejaVuSans-98"/>
      <use x="640.429688" xlink:href="#DejaVuSans-101"/>
      <use x="701.953125" xlink:href="#DejaVuSans-108"/>
      <use x="729.736328" xlink:href="#DejaVuSans-103"/>
      <use x="793.212891" xlink:href="#DejaVuSans-105"/>
      <use x="820.996094" xlink:href="#DejaVuSans-97"/>
     </g>
    </g>
    <g id="PathCollection_20">
     <defs>
      <path d="M 0 5 
C 1.326016 5 2.597899 4.473168 3.535534 3.535534 
C 4.473168 2.597899 5 1.326016 5 0 
C 5 -1.326016 4.473168 -2.597899 3.535534 -3.535534 
C 2.597899 -4.473168 1.326016 -5 0 -5 
C -1.326016 -5 -2.597899 -4.473168 -3.535534 -3.535534 
C -4.473168 -2.597899 -5 -1.326016 -5 0 
C -5 1.326016 -4.473168 2.597899 -3.535534 3.535534 
C -2.597899 4.473168 -1.326016 5 0 5 
z
" id="m807614c8db" style="stroke:#ffffff;"/>
     </defs>
     <g>
      <use style="fill:#8ca252;stroke:#ffffff;" x="536.79475" xlink:href="#m807614c8db" y="159.758125"/>
     </g>
    </g>
    <g id="text_25">
     <!-- rastplatz-stampf -->
     <g transform="translate(554.79475 162.383125)scale(0.1 -0.1)">
      <use xlink:href="#DejaVuSans-114"/>
      <use x="41.113281" xlink:href="#DejaVuSans-97"/>
      <use x="102.392578" xlink:href="#DejaVuSans-115"/>
      <use x="154.492188" xlink:href="#DejaVuSans-116"/>
      <use x="193.701172" xlink:href="#DejaVuSans-112"/>
      <use x="257.177734" xlink:href="#DejaVuSans-108"/>
      <use x="284.960938" xlink:href="#DejaVuSans-97"/>
      <use x="346.240234" xlink:href="#DejaVuSans-116"/>
      <use x="385.449219" xlink:href="#DejaVuSans-122"/>
      <use x="437.939453" xlink:href="#DejaVuSans-45"/>
      <use x="474.023438" xlink:href="#DejaVuSans-115"/>
      <use x="526.123047" xlink:href="#DejaVuSans-116"/>
      <use x="565.332031" xlink:href="#DejaVuSans-97"/>
      <use x="626.611328" xlink:href="#DejaVuSans-109"/>
      <use x="724.023438" xlink:href="#DejaVuSans-112"/>
      <use x="787.5" xlink:href="#DejaVuSans-102"/>
     </g>
    </g>
    <g id="PathCollection_21">
     <defs>
      <path d="M 0 5 
C 1.326016 5 2.597899 4.473168 3.535534 3.535534 
C 4.473168 2.597899 5 1.326016 5 0 
C 5 -1.326016 4.473168 -2.597899 3.535534 -3.535534 
C 2.597899 -4.473168 1.326016 -5 0 -5 
C -1.326016 -5 -2.597899 -4.473168 -3.535534 -3.535534 
C -4.473168 -2.597899 -5 -1.326016 -5 0 
C -5 1.326016 -4.473168 2.597899 -3.535534 3.535534 
C -2.597899 4.473168 -1.326016 5 0 5 
z
" id="m523a044424" style="stroke:#ffffff;"/>
     </defs>
     <g>
      <use style="fill:#b5cf6b;stroke:#ffffff;" x="536.79475" xlink:href="#m523a044424" y="174.43625"/>
     </g>
    </g>
    <g id="text_26">
     <!-- strandbeiz -->
     <g transform="translate(554.79475 177.06125)scale(0.1 -0.1)">
      <use xlink:href="#DejaVuSans-115"/>
      <use x="52.099609" xlink:href="#DejaVuSans-116"/>
      <use x="91.308594" xlink:href="#DejaVuSans-114"/>
      <use x="132.421875" xlink:href="#DejaVuSans-97"/>
      <use x="193.701172" xlink:href="#DejaVuSans-110"/>
      <use x="257.080078" xlink:href="#DejaVuSans-100"/>
      <use x="320.556641" xlink:href="#DejaVuSans-98"/>
      <use x="384.033203" xlink:href="#DejaVuSans-101"/>
      <use x="445.556641" xlink:href="#DejaVuSans-105"/>
      <use x="473.339844" xlink:href="#DejaVuSans-122"/>
     </g>
    </g>
    <g id="PathCollection_22">
     <defs>
      <path d="M 0 5 
C 1.326016 5 2.597899 4.473168 3.535534 3.535534 
C 4.473168 2.597899 5 1.326016 5 0 
C 5 -1.326016 4.473168 -2.597899 3.535534 -3.535534 
C 2.597899 -4.473168 1.326016 -5 0 -5 
C -1.326016 -5 -2.597899 -4.473168 -3.535534 -3.535534 
C -4.473168 -2.597899 -5 -1.326016 -5 0 
C -5 1.326016 -4.473168 2.597899 -3.535534 3.535534 
C -2.597899 4.473168 -1.326016 5 0 5 
z
" id="md239ebfe42" style="stroke:#ffffff;"/>
     </defs>
     <g>
      <use style="fill:#cedb9c;stroke:#ffffff;" x="536.79475" xlink:href="#md239ebfe42" y="189.114375"/>
     </g>
    </g>
    <g id="text_27">
     <!-- thunersee_spiez_meierd_1 -->
     <g transform="translate(554.79475 191.739375)scale(0.1 -0.1)">
      <use xlink:href="#DejaVuSans-116"/>
      <use x="39.208984" xlink:href="#DejaVuSans-104"/>
      <use x="102.587891" xlink:href="#DejaVuSans-117"/>
      <use x="165.966797" xlink:href="#DejaVuSans-110"/>
      <use x="229.345703" xlink:href="#DejaVuSans-101"/>
      <use x="290.869141" xlink:href="#DejaVuSans-114"/>
      <use x="331.982422" xlink:href="#DejaVuSans-115"/>
      <use x="384.082031" xlink:href="#DejaVuSans-101"/>
      <use x="445.605469" xlink:href="#DejaVuSans-101"/>
      <use x="507.128906" xlink:href="#DejaVuSans-95"/>
      <use x="557.128906" xlink:href="#DejaVuSans-115"/>
      <use x="609.228516" xlink:href="#DejaVuSans-112"/>
      <use x="672.705078" xlink:href="#DejaVuSans-105"/>
      <use x="700.488281" xlink:href="#DejaVuSans-101"/>
      <use x="762.011719" xlink:href="#DejaVuSans-122"/>
      <use x="814.501953" xlink:href="#DejaVuSans-95"/>
      <use x="864.501953" xlink:href="#DejaVuSans-109"/>
      <use x="961.914062" xlink:href="#DejaVuSans-101"/>
      <use x="1023.4375" xlink:href="#DejaVuSans-105"/>
      <use x="1051.220703" xlink:href="#DejaVuSans-101"/>
      <use x="1112.744141" xlink:href="#DejaVuSans-114"/>
      <use x="1153.841797" xlink:href="#DejaVuSans-100"/>
      <use x="1217.318359" xlink:href="#DejaVuSans-95"/>
      <use x="1267.318359" xlink:href="#DejaVuSans-49"/>
     </g>
    </g>
    <g id="PathCollection_23">
     <defs>
      <path d="M 0 5 
C 1.326016 5 2.597899 4.473168 3.535534 3.535534 
C 4.473168 2.597899 5 1.326016 5 0 
C 5 -1.326016 4.473168 -2.597899 3.535534 -3.535534 
C 2.597899 -4.473168 1.326016 -5 0 -5 
C -1.326016 -5 -2.597899 -4.473168 -3.535534 -3.535534 
C -4.473168 -2.597899 -5 -1.326016 -5 0 
C -5 1.326016 -4.473168 2.597899 -3.535534 3.535534 
C -2.597899 4.473168 -1.326016 5 0 5 
z
" id="ma9c9f1d6ae" style="stroke:#ffffff;"/>
     </defs>
     <g>
      <use style="fill:#8c6d31;stroke:#ffffff;" x="536.79475" xlink:href="#ma9c9f1d6ae" y="204.070625"/>
     </g>
    </g>
    <g id="text_28">
     <!-- walensee_walenstadt_wysse -->
     <defs>
      <path d="M 4.203125 54.6875 
L 13.1875 54.6875 
L 24.421875 12.015625 
L 35.59375 54.6875 
L 46.1875 54.6875 
L 57.421875 12.015625 
L 68.609375 54.6875 
L 77.59375 54.6875 
L 63.28125 0 
L 52.6875 0 
L 40.921875 44.828125 
L 29.109375 0 
L 18.5 0 
z
" id="DejaVuSans-119"/>
     </defs>
     <g transform="translate(554.79475 206.695625)scale(0.1 -0.1)">
      <use xlink:href="#DejaVuSans-119"/>
      <use x="81.787109" xlink:href="#DejaVuSans-97"/>
      <use x="143.066406" xlink:href="#DejaVuSans-108"/>
      <use x="170.849609" xlink:href="#DejaVuSans-101"/>
      <use x="232.373047" xlink:href="#DejaVuSans-110"/>
      <use x="295.751953" xlink:href="#DejaVuSans-115"/>
      <use x="347.851562" xlink:href="#DejaVuSans-101"/>
      <use x="409.375" xlink:href="#DejaVuSans-101"/>
      <use x="470.898438" xlink:href="#DejaVuSans-95"/>
      <use x="520.898438" xlink:href="#DejaVuSans-119"/>
      <use x="602.685547" xlink:href="#DejaVuSans-97"/>
      <use x="663.964844" xlink:href="#DejaVuSans-108"/>
      <use x="691.748047" xlink:href="#DejaVuSans-101"/>
      <use x="753.271484" xlink:href="#DejaVuSans-110"/>
      <use x="816.650391" xlink:href="#DejaVuSans-115"/>
      <use x="868.75" xlink:href="#DejaVuSans-116"/>
      <use x="907.958984" xlink:href="#DejaVuSans-97"/>
      <use x="969.238281" xlink:href="#DejaVuSans-100"/>
      <use x="1032.714844" xlink:href="#DejaVuSans-116"/>
      <use x="1071.923828" xlink:href="#DejaVuSans-95"/>
      <use x="1121.923828" xlink:href="#DejaVuSans-119"/>
      <use x="1203.710938" xlink:href="#DejaVuSans-121"/>
      <use x="1262.890625" xlink:href="#DejaVuSans-115"/>
      <use x="1314.990234" xlink:href="#DejaVuSans-115"/>
      <use x="1367.089844" xlink:href="#DejaVuSans-101"/>
     </g>
    </g>
    <g id="PathCollection_24">
     <defs>
      <path d="M 0 5 
C 1.326016 5 2.597899 4.473168 3.535534 3.535534 
C 4.473168 2.597899 5 1.326016 5 0 
C 5 -1.326016 4.473168 -2.597899 3.535534 -3.535534 
C 2.597899 -4.473168 1.326016 -5 0 -5 
C -1.326016 -5 -2.597899 -4.473168 -3.535534 -3.535534 
C -4.473168 -2.597899 -5 -1.326016 -5 0 
C -5 1.326016 -4.473168 2.597899 -3.535534 3.535534 
C -2.597899 4.473168 -1.326016 5 0 5 
z
" id="meeb1d80d18" style="stroke:#ffffff;"/>
     </defs>
     <g>
      <use style="fill:#bd9e39;stroke:#ffffff;" x="536.79475" xlink:href="#meeb1d80d18" y="219.026875"/>
     </g>
    </g>
    <g id="text_29">
     <!-- zuerichsee_richterswil_benkoem_2 -->
     <g transform="translate(554.79475 221.651875)scale(0.1 -0.1)">
      <use xlink:href="#DejaVuSans-122"/>
      <use x="52.490234" xlink:href="#DejaVuSans-117"/>
      <use x="115.869141" xlink:href="#DejaVuSans-101"/>
      <use x="177.392578" xlink:href="#DejaVuSans-114"/>
      <use x="218.505859" xlink:href="#DejaVuSans-105"/>
      <use x="246.289062" xlink:href="#DejaVuSans-99"/>
      <use x="301.269531" xlink:href="#DejaVuSans-104"/>
      <use x="364.648438" xlink:href="#DejaVuSans-115"/>
      <use x="416.748047" xlink:href="#DejaVuSans-101"/>
      <use x="478.271484" xlink:href="#DejaVuSans-101"/>
      <use x="539.794922" xlink:href="#DejaVuSans-95"/>
      <use x="589.794922" xlink:href="#DejaVuSans-114"/>
      <use x="630.908203" xlink:href="#DejaVuSans-105"/>
      <use x="658.691406" xlink:href="#DejaVuSans-99"/>
      <use x="713.671875" xlink:href="#DejaVuSans-104"/>
      <use x="777.050781" xlink:href="#DejaVuSans-116"/>
      <use x="816.259766" xlink:href="#DejaVuSans-101"/>
      <use x="877.783203" xlink:href="#DejaVuSans-114"/>
      <use x="918.896484" xlink:href="#DejaVuSans-115"/>
      <use x="970.996094" xlink:href="#DejaVuSans-119"/>
      <use x="1052.783203" xlink:href="#DejaVuSans-105"/>
      <use x="1080.566406" xlink:href="#DejaVuSans-108"/>
      <use x="1108.349609" xlink:href="#DejaVuSans-95"/>
      <use x="1158.349609" xlink:href="#DejaVuSans-98"/>
      <use x="1221.826172" xlink:href="#DejaVuSans-101"/>
      <use x="1283.349609" xlink:href="#DejaVuSans-110"/>
      <use x="1346.728516" xlink:href="#DejaVuSans-107"/>
      <use x="1404.591797" xlink:href="#DejaVuSans-111"/>
      <use x="1465.773438" xlink:href="#DejaVuSans-101"/>
      <use x="1527.296875" xlink:href="#DejaVuSans-109"/>
      <use x="1624.708984" xlink:href="#DejaVuSans-95"/>
      <use x="1674.708984" xlink:href="#DejaVuSans-50"/>
     </g>
    </g>
    <g id="PathCollection_25">
     <defs>
      <path d="M 0 5 
C 1.326016 5 2.597899 4.473168 3.535534 3.535534 
C 4.473168 2.597899 5 1.326016 5 0 
C 5 -1.326016 4.473168 -2.597899 3.535534 -3.535534 
C 2.597899 -4.473168 1.326016 -5 0 -5 
C -1.326016 -5 -2.597899 -4.473168 -3.535534 -3.535534 
C -4.473168 -2.597899 -5 -1.326016 -5 0 
C -5 1.326016 -4.473168 2.597899 -3.535534 3.535534 
C -2.597899 4.473168 -1.326016 5 0 5 
z
" id="md3db587d87" style="stroke:#ffffff;"/>
     </defs>
     <g>
      <use style="fill:#e7ba52;stroke:#ffffff;" x="536.79475" xlink:href="#md3db587d87" y="233.983125"/>
     </g>
    </g>
    <g id="text_30">
     <!-- zurichsee_kusnachterhorn_thirkell-whitej -->
     <g transform="translate(554.79475 236.608125)scale(0.1 -0.1)">
      <use xlink:href="#DejaVuSans-122"/>
      <use x="52.490234" xlink:href="#DejaVuSans-117"/>
      <use x="115.869141" xlink:href="#DejaVuSans-114"/>
      <use x="156.982422" xlink:href="#DejaVuSans-105"/>
      <use x="184.765625" xlink:href="#DejaVuSans-99"/>
      <use x="239.746094" xlink:href="#DejaVuSans-104"/>
      <use x="303.125" xlink:href="#DejaVuSans-115"/>
      <use x="355.224609" xlink:href="#DejaVuSans-101"/>
      <use x="416.748047" xlink:href="#DejaVuSans-101"/>
      <use x="478.271484" xlink:href="#DejaVuSans-95"/>
      <use x="528.271484" xlink:href="#DejaVuSans-107"/>
      <use x="586.134766" xlink:href="#DejaVuSans-117"/>
      <use x="649.513672" xlink:href="#DejaVuSans-115"/>
      <use x="701.613281" xlink:href="#DejaVuSans-110"/>
      <use x="764.992188" xlink:href="#DejaVuSans-97"/>
      <use x="826.271484" xlink:href="#DejaVuSans-99"/>
      <use x="881.251953" xlink:href="#DejaVuSans-104"/>
      <use x="944.630859" xlink:href="#DejaVuSans-116"/>
      <use x="983.839844" xlink:href="#DejaVuSans-101"/>
      <use x="1045.363281" xlink:href="#DejaVuSans-114"/>
      <use x="1086.460938" xlink:href="#DejaVuSans-104"/>
      <use x="1149.839844" xlink:href="#DejaVuSans-111"/>
      <use x="1211.021484" xlink:href="#DejaVuSans-114"/>
      <use x="1252.119141" xlink:href="#DejaVuSans-110"/>
      <use x="1315.498047" xlink:href="#DejaVuSans-95"/>
      <use x="1365.498047" xlink:href="#DejaVuSans-116"/>
      <use x="1404.707031" xlink:href="#DejaVuSans-104"/>
      <use x="1468.085938" xlink:href="#DejaVuSans-105"/>
      <use x="1495.869141" xlink:href="#DejaVuSans-114"/>
      <use x="1536.982422" xlink:href="#DejaVuSans-107"/>
      <use x="1594.845703" xlink:href="#DejaVuSans-101"/>
      <use x="1656.369141" xlink:href="#DejaVuSans-108"/>
      <use x="1684.152344" xlink:href="#DejaVuSans-108"/>
      <use x="1711.935547" xlink:href="#DejaVuSans-45"/>
      <use x="1748.019531" xlink:href="#DejaVuSans-119"/>
      <use x="1829.806641" xlink:href="#DejaVuSans-104"/>
      <use x="1893.185547" xlink:href="#DejaVuSans-105"/>
      <use x="1920.96875" xlink:href="#DejaVuSans-116"/>
      <use x="1960.177734" xlink:href="#DejaVuSans-101"/>
      <use x="2021.701172" xlink:href="#DejaVuSans-106"/>
     </g>
    </g>
    <g id="PathCollection_26">
     <defs>
      <path d="M 0 5 
C 1.326016 5 2.597899 4.473168 3.535534 3.535534 
C 4.473168 2.597899 5 1.326016 5 0 
C 5 -1.326016 4.473168 -2.597899 3.535534 -3.535534 
C 2.597899 -4.473168 1.326016 -5 0 -5 
C -1.326016 -5 -2.597899 -4.473168 -3.535534 -3.535534 
C -4.473168 -2.597899 -5 -1.326016 -5 0 
C -5 1.326016 -4.473168 2.597899 -3.535534 3.535534 
C -2.597899 4.473168 -1.326016 5 0 5 
z
" id="md60a5c9670" style="stroke:#ffffff;"/>
     </defs>
     <g>
      <use style="fill:#e7cb94;stroke:#ffffff;" x="536.79475" xlink:href="#md60a5c9670" y="248.939375"/>
     </g>
    </g>
    <g id="text_31">
     <!-- zurichsee_wollishofen_langendorfm -->
     <g transform="translate(554.79475 251.564375)scale(0.1 -0.1)">
      <use xlink:href="#DejaVuSans-122"/>
      <use x="52.490234" xlink:href="#DejaVuSans-117"/>
      <use x="115.869141" xlink:href="#DejaVuSans-114"/>
      <use x="156.982422" xlink:href="#DejaVuSans-105"/>
      <use x="184.765625" xlink:href="#DejaVuSans-99"/>
      <use x="239.746094" xlink:href="#DejaVuSans-104"/>
      <use x="303.125" xlink:href="#DejaVuSans-115"/>
      <use x="355.224609" xlink:href="#DejaVuSans-101"/>
      <use x="416.748047" xlink:href="#DejaVuSans-101"/>
      <use x="478.271484" xlink:href="#DejaVuSans-95"/>
      <use x="528.271484" xlink:href="#DejaVuSans-119"/>
      <use x="610.058594" xlink:href="#DejaVuSans-111"/>
      <use x="671.240234" xlink:href="#DejaVuSans-108"/>
      <use x="699.023438" xlink:href="#DejaVuSans-108"/>
      <use x="726.806641" xlink:href="#DejaVuSans-105"/>
      <use x="754.589844" xlink:href="#DejaVuSans-115"/>
      <use x="806.689453" xlink:href="#DejaVuSans-104"/>
      <use x="870.068359" xlink:href="#DejaVuSans-111"/>
      <use x="931.25" xlink:href="#DejaVuSans-102"/>
      <use x="966.455078" xlink:href="#DejaVuSans-101"/>
      <use x="1027.978516" xlink:href="#DejaVuSans-110"/>
      <use x="1091.357422" xlink:href="#DejaVuSans-95"/>
      <use x="1141.357422" xlink:href="#DejaVuSans-108"/>
      <use x="1169.140625" xlink:href="#DejaVuSans-97"/>
      <use x="1230.419922" xlink:href="#DejaVuSans-110"/>
      <use x="1293.798828" xlink:href="#DejaVuSans-103"/>
      <use x="1357.275391" xlink:href="#DejaVuSans-101"/>
      <use x="1418.798828" xlink:href="#DejaVuSans-110"/>
      <use x="1482.177734" xlink:href="#DejaVuSans-100"/>
      <use x="1545.654297" xlink:href="#DejaVuSans-111"/>
      <use x="1606.835938" xlink:href="#DejaVuSans-114"/>
      <use x="1647.949219" xlink:href="#DejaVuSans-102"/>
      <use x="1683.154297" xlink:href="#DejaVuSans-109"/>
     </g>
    </g>
   </g>
   <g id="legend_2">
    <g id="patch_8">
     <path d="M 366.966875 329.637812 
L 492.93875 329.637812 
Q 494.93875 329.637812 494.93875 327.637812 
L 494.93875 212.603437 
Q 494.93875 210.603437 492.93875 210.603437 
L 366.966875 210.603437 
Q 364.966875 210.603437 364.966875 212.603437 
L 364.966875 327.637812 
Q 364.966875 329.637812 366.966875 329.637812 
z
" style="fill:#ffffff;opacity:0.8;stroke:#cccccc;stroke-linejoin:miter;"/>
    </g>
    <g id="text_32">
     <!-- Pieces per meter -->
     <defs>
      <path d="M 19.671875 64.796875 
L 19.671875 37.40625 
L 32.078125 37.40625 
Q 38.96875 37.40625 42.71875 40.96875 
Q 46.484375 44.53125 46.484375 51.125 
Q 46.484375 57.671875 42.71875 61.234375 
Q 38.96875 64.796875 32.078125 64.796875 
z
M 9.8125 72.90625 
L 32.078125 72.90625 
Q 44.34375 72.90625 50.609375 67.359375 
Q 56.890625 61.8125 56.890625 51.125 
Q 56.890625 40.328125 50.609375 34.8125 
Q 44.34375 29.296875 32.078125 29.296875 
L 19.671875 29.296875 
L 19.671875 0 
L 9.8125 0 
z
" id="DejaVuSans-80"/>
     </defs>
     <g transform="translate(387.52 238.201875)scale(0.1 -0.1)">
      <use xlink:href="#DejaVuSans-80"/>
      <use x="60.271484" xlink:href="#DejaVuSans-105"/>
      <use x="88.054688" xlink:href="#DejaVuSans-101"/>
      <use x="149.578125" xlink:href="#DejaVuSans-99"/>
      <use x="204.558594" xlink:href="#DejaVuSans-101"/>
      <use x="266.082031" xlink:href="#DejaVuSans-115"/>
      <use x="318.181641" xlink:href="#DejaVuSans-32"/>
      <use x="349.96875" xlink:href="#DejaVuSans-112"/>
      <use x="413.445312" xlink:href="#DejaVuSans-101"/>
      <use x="474.96875" xlink:href="#DejaVuSans-114"/>
      <use x="516.082031" xlink:href="#DejaVuSans-32"/>
      <use x="547.869141" xlink:href="#DejaVuSans-109"/>
      <use x="645.28125" xlink:href="#DejaVuSans-101"/>
      <use x="706.804688" xlink:href="#DejaVuSans-116"/>
      <use x="746.013672" xlink:href="#DejaVuSans-101"/>
      <use x="807.537109" xlink:href="#DejaVuSans-114"/>
     </g>
    </g>
    <g id="PathCollection_27">
     <defs>
      <path d="M 0 4.242641 
C 1.125161 4.242641 2.204391 3.795609 3 3 
C 3.795609 2.204391 4.242641 1.125161 4.242641 0 
C 4.242641 -1.125161 3.795609 -2.204391 3 -3 
C 2.204391 -3.795609 1.125161 -4.242641 0 -4.242641 
C -1.125161 -4.242641 -2.204391 -3.795609 -3 -3 
C -3.795609 -2.204391 -4.242641 -1.125161 -4.242641 0 
C -4.242641 1.125161 -3.795609 2.204391 -3 3 
C -2.204391 3.795609 -1.125161 4.242641 0 4.242641 
z
" id="m9f80fc2c99" style="stroke:#0000ff;stroke-opacity:0.6;"/>
     </defs>
     <g>
      <use style="fill:#0000ff;fill-opacity:0.6;stroke:#0000ff;stroke-opacity:0.6;" x="394.966875" xlink:href="#m9f80fc2c99" y="270.255"/>
     </g>
    </g>
    <g id="text_33">
     <!--  0.6pcs/m -->
     <defs>
      <path d="M 33.015625 40.375 
Q 26.375 40.375 22.484375 35.828125 
Q 18.609375 31.296875 18.609375 23.390625 
Q 18.609375 15.53125 22.484375 10.953125 
Q 26.375 6.390625 33.015625 6.390625 
Q 39.65625 6.390625 43.53125 10.953125 
Q 47.40625 15.53125 47.40625 23.390625 
Q 47.40625 31.296875 43.53125 35.828125 
Q 39.65625 40.375 33.015625 40.375 
z
M 52.59375 71.296875 
L 52.59375 62.3125 
Q 48.875 64.0625 45.09375 64.984375 
Q 41.3125 65.921875 37.59375 65.921875 
Q 27.828125 65.921875 22.671875 59.328125 
Q 17.53125 52.734375 16.796875 39.40625 
Q 19.671875 43.65625 24.015625 45.921875 
Q 28.375 48.1875 33.59375 48.1875 
Q 44.578125 48.1875 50.953125 41.515625 
Q 57.328125 34.859375 57.328125 23.390625 
Q 57.328125 12.15625 50.6875 5.359375 
Q 44.046875 -1.421875 33.015625 -1.421875 
Q 20.359375 -1.421875 13.671875 8.265625 
Q 6.984375 17.96875 6.984375 36.375 
Q 6.984375 53.65625 15.1875 63.9375 
Q 23.390625 74.21875 37.203125 74.21875 
Q 40.921875 74.21875 44.703125 73.484375 
Q 48.484375 72.75 52.59375 71.296875 
z
" id="DejaVuSans-54"/>
      <path d="M 25.390625 72.90625 
L 33.6875 72.90625 
L 8.296875 -9.28125 
L 0 -9.28125 
z
" id="DejaVuSans-47"/>
     </defs>
     <g transform="translate(412.966875 272.88)scale(0.1 -0.1)">
      <use xlink:href="#DejaVuSans-32"/>
      <use x="31.787109" xlink:href="#DejaVuSans-48"/>
      <use x="95.410156" xlink:href="#DejaVuSans-46"/>
      <use x="127.197266" xlink:href="#DejaVuSans-54"/>
      <use x="190.820312" xlink:href="#DejaVuSans-112"/>
      <use x="254.296875" xlink:href="#DejaVuSans-99"/>
      <use x="309.277344" xlink:href="#DejaVuSans-115"/>
      <use x="361.376953" xlink:href="#DejaVuSans-47"/>
      <use x="395.068359" xlink:href="#DejaVuSans-109"/>
     </g>
    </g>
    <g id="PathCollection_28">
     <defs>
      <path d="M 0 17.722867 
C 4.700159 17.722867 9.208445 15.855474 12.531959 12.531959 
C 15.855474 9.208445 17.722867 4.700159 17.722867 0 
C 17.722867 -4.700159 15.855474 -9.208445 12.531959 -12.531959 
C 9.208445 -15.855474 4.700159 -17.722867 0 -17.722867 
C -4.700159 -17.722867 -9.208445 -15.855474 -12.531959 -12.531959 
C -15.855474 -9.208445 -17.722867 -4.700159 -17.722867 0 
C -17.722867 4.700159 -15.855474 9.208445 -12.531959 12.531959 
C -9.208445 15.855474 -4.700159 17.722867 0 17.722867 
z
" id="mb282512365" style="stroke:#0000ff;stroke-opacity:0.6;"/>
     </defs>
     <g>
      <use style="fill:#0000ff;fill-opacity:0.6;stroke:#0000ff;stroke-opacity:0.6;" x="394.966875" xlink:href="#mb282512365" y="304.933125"/>
     </g>
    </g>
    <g id="text_34">
     <!--  10.47pcs/m -->
     <defs>
      <path d="M 8.203125 72.90625 
L 55.078125 72.90625 
L 55.078125 68.703125 
L 28.609375 0 
L 18.3125 0 
L 43.21875 64.59375 
L 8.203125 64.59375 
z
" id="DejaVuSans-55"/>
     </defs>
     <g transform="translate(412.966875 307.558125)scale(0.1 -0.1)">
      <use xlink:href="#DejaVuSans-32"/>
      <use x="31.787109" xlink:href="#DejaVuSans-49"/>
      <use x="95.410156" xlink:href="#DejaVuSans-48"/>
      <use x="159.033203" xlink:href="#DejaVuSans-46"/>
      <use x="190.820312" xlink:href="#DejaVuSans-52"/>
      <use x="254.443359" xlink:href="#DejaVuSans-55"/>
      <use x="318.066406" xlink:href="#DejaVuSans-112"/>
      <use x="381.542969" xlink:href="#DejaVuSans-99"/>
      <use x="436.523438" xlink:href="#DejaVuSans-115"/>
      <use x="488.623047" xlink:href="#DejaVuSans-47"/>
      <use x="522.314453" xlink:href="#DejaVuSans-109"/>
     </g>
    </g>
   </g>
  </g>
  <g id="text_35">
   <!-- All locations and all surveys Jan-2020 to Apr-2020 -->
   <defs>
    <path d="M 34.1875 63.1875 
L 20.796875 26.90625 
L 47.609375 26.90625 
z
M 28.609375 72.90625 
L 39.796875 72.90625 
L 67.578125 0 
L 57.328125 0 
L 50.6875 18.703125 
L 17.828125 18.703125 
L 11.1875 0 
L 0.78125 0 
z
" id="DejaVuSans-65"/>
    <path d="M 9.8125 72.90625 
L 19.671875 72.90625 
L 19.671875 5.078125 
Q 19.671875 -8.109375 14.671875 -14.0625 
Q 9.671875 -20.015625 -1.421875 -20.015625 
L -5.171875 -20.015625 
L -5.171875 -11.71875 
L -2.09375 -11.71875 
Q 4.4375 -11.71875 7.125 -8.046875 
Q 9.8125 -4.390625 9.8125 5.078125 
z
" id="DejaVuSans-74"/>
   </defs>
   <g transform="translate(56.41875 17.837812)scale(0.14 -0.14)">
    <use xlink:href="#DejaVuSans-65"/>
    <use x="68.408203" xlink:href="#DejaVuSans-108"/>
    <use x="96.191406" xlink:href="#DejaVuSans-108"/>
    <use x="123.974609" xlink:href="#DejaVuSans-32"/>
    <use x="155.761719" xlink:href="#DejaVuSans-108"/>
    <use x="183.544922" xlink:href="#DejaVuSans-111"/>
    <use x="244.726562" xlink:href="#DejaVuSans-99"/>
    <use x="299.707031" xlink:href="#DejaVuSans-97"/>
    <use x="360.986328" xlink:href="#DejaVuSans-116"/>
    <use x="400.195312" xlink:href="#DejaVuSans-105"/>
    <use x="427.978516" xlink:href="#DejaVuSans-111"/>
    <use x="489.160156" xlink:href="#DejaVuSans-110"/>
    <use x="552.539062" xlink:href="#DejaVuSans-115"/>
    <use x="604.638672" xlink:href="#DejaVuSans-32"/>
    <use x="636.425781" xlink:href="#DejaVuSans-97"/>
    <use x="697.705078" xlink:href="#DejaVuSans-110"/>
    <use x="761.083984" xlink:href="#DejaVuSans-100"/>
    <use x="824.560547" xlink:href="#DejaVuSans-32"/>
    <use x="856.347656" xlink:href="#DejaVuSans-97"/>
    <use x="917.626953" xlink:href="#DejaVuSans-108"/>
    <use x="945.410156" xlink:href="#DejaVuSans-108"/>
    <use x="973.193359" xlink:href="#DejaVuSans-32"/>
    <use x="1004.980469" xlink:href="#DejaVuSans-115"/>
    <use x="1057.080078" xlink:href="#DejaVuSans-117"/>
    <use x="1120.458984" xlink:href="#DejaVuSans-114"/>
    <use x="1161.572266" xlink:href="#DejaVuSans-118"/>
    <use x="1220.751953" xlink:href="#DejaVuSans-101"/>
    <use x="1282.275391" xlink:href="#DejaVuSans-121"/>
    <use x="1341.455078" xlink:href="#DejaVuSans-115"/>
    <use x="1393.554688" xlink:href="#DejaVuSans-32"/>
    <use x="1425.341797" xlink:href="#DejaVuSans-74"/>
    <use x="1454.833984" xlink:href="#DejaVuSans-97"/>
    <use x="1516.113281" xlink:href="#DejaVuSans-110"/>
    <use x="1579.492188" xlink:href="#DejaVuSans-45"/>
    <use x="1615.576172" xlink:href="#DejaVuSans-50"/>
    <use x="1679.199219" xlink:href="#DejaVuSans-48"/>
    <use x="1742.822266" xlink:href="#DejaVuSans-50"/>
    <use x="1806.445312" xlink:href="#DejaVuSans-48"/>
    <use x="1870.068359" xlink:href="#DejaVuSans-32"/>
    <use x="1901.855469" xlink:href="#DejaVuSans-116"/>
    <use x="1941.064453" xlink:href="#DejaVuSans-111"/>
    <use x="2002.246094" xlink:href="#DejaVuSans-32"/>
    <use x="2034.033203" xlink:href="#DejaVuSans-65"/>
    <use x="2102.441406" xlink:href="#DejaVuSans-112"/>
    <use x="2165.917969" xlink:href="#DejaVuSans-114"/>
    <use x="2206.9375" xlink:href="#DejaVuSans-45"/>
    <use x="2243.021484" xlink:href="#DejaVuSans-50"/>
    <use x="2306.644531" xlink:href="#DejaVuSans-48"/>
    <use x="2370.267578" xlink:href="#DejaVuSans-50"/>
    <use x="2433.890625" xlink:href="#DejaVuSans-48"/>
   </g>
  </g>
 </g>
 <defs>
  <clipPath id="p41d5c0bb87">
   <rect height="277.2" width="446.4" x="53.53875" y="57.437813"/>
  </clipPath>
 </defs>
</svg>
